%TF.GenerationSoftware,KiCad,Pcbnew,7.0.7-7.0.7~ubuntu22.04.1*%
%TF.CreationDate,2023-09-04T11:07:22+02:00*%
%TF.ProjectId,schaltung,73636861-6c74-4756-9e67-2e6b69636164,rev?*%
%TF.SameCoordinates,Original*%
%TF.FileFunction,Legend,Top*%
%TF.FilePolarity,Positive*%
%FSLAX46Y46*%
G04 Gerber Fmt 4.6, Leading zero omitted, Abs format (unit mm)*
G04 Created by KiCad (PCBNEW 7.0.7-7.0.7~ubuntu22.04.1) date 2023-09-04 11:07:22*
%MOMM*%
%LPD*%
G01*
G04 APERTURE LIST*
%ADD10C,0.150000*%
%ADD11C,0.120000*%
%ADD12C,0.127000*%
%ADD13C,0.200000*%
G04 APERTURE END LIST*
D10*
X211923333Y-108024819D02*
X211590000Y-107548628D01*
X211351905Y-108024819D02*
X211351905Y-107024819D01*
X211351905Y-107024819D02*
X211732857Y-107024819D01*
X211732857Y-107024819D02*
X211828095Y-107072438D01*
X211828095Y-107072438D02*
X211875714Y-107120057D01*
X211875714Y-107120057D02*
X211923333Y-107215295D01*
X211923333Y-107215295D02*
X211923333Y-107358152D01*
X211923333Y-107358152D02*
X211875714Y-107453390D01*
X211875714Y-107453390D02*
X211828095Y-107501009D01*
X211828095Y-107501009D02*
X211732857Y-107548628D01*
X211732857Y-107548628D02*
X211351905Y-107548628D01*
X212780476Y-107024819D02*
X212590000Y-107024819D01*
X212590000Y-107024819D02*
X212494762Y-107072438D01*
X212494762Y-107072438D02*
X212447143Y-107120057D01*
X212447143Y-107120057D02*
X212351905Y-107262914D01*
X212351905Y-107262914D02*
X212304286Y-107453390D01*
X212304286Y-107453390D02*
X212304286Y-107834342D01*
X212304286Y-107834342D02*
X212351905Y-107929580D01*
X212351905Y-107929580D02*
X212399524Y-107977200D01*
X212399524Y-107977200D02*
X212494762Y-108024819D01*
X212494762Y-108024819D02*
X212685238Y-108024819D01*
X212685238Y-108024819D02*
X212780476Y-107977200D01*
X212780476Y-107977200D02*
X212828095Y-107929580D01*
X212828095Y-107929580D02*
X212875714Y-107834342D01*
X212875714Y-107834342D02*
X212875714Y-107596247D01*
X212875714Y-107596247D02*
X212828095Y-107501009D01*
X212828095Y-107501009D02*
X212780476Y-107453390D01*
X212780476Y-107453390D02*
X212685238Y-107405771D01*
X212685238Y-107405771D02*
X212494762Y-107405771D01*
X212494762Y-107405771D02*
X212399524Y-107453390D01*
X212399524Y-107453390D02*
X212351905Y-107501009D01*
X212351905Y-107501009D02*
X212304286Y-107596247D01*
X210624819Y-99496666D02*
X210148628Y-99829999D01*
X210624819Y-100068094D02*
X209624819Y-100068094D01*
X209624819Y-100068094D02*
X209624819Y-99687142D01*
X209624819Y-99687142D02*
X209672438Y-99591904D01*
X209672438Y-99591904D02*
X209720057Y-99544285D01*
X209720057Y-99544285D02*
X209815295Y-99496666D01*
X209815295Y-99496666D02*
X209958152Y-99496666D01*
X209958152Y-99496666D02*
X210053390Y-99544285D01*
X210053390Y-99544285D02*
X210101009Y-99591904D01*
X210101009Y-99591904D02*
X210148628Y-99687142D01*
X210148628Y-99687142D02*
X210148628Y-100068094D01*
X209624819Y-99163332D02*
X209624819Y-98496666D01*
X209624819Y-98496666D02*
X210624819Y-98925237D01*
X224456666Y-95954819D02*
X224456666Y-96669104D01*
X224456666Y-96669104D02*
X224409047Y-96811961D01*
X224409047Y-96811961D02*
X224313809Y-96907200D01*
X224313809Y-96907200D02*
X224170952Y-96954819D01*
X224170952Y-96954819D02*
X224075714Y-96954819D01*
X225361428Y-96288152D02*
X225361428Y-96954819D01*
X225123333Y-95907200D02*
X224885238Y-96621485D01*
X224885238Y-96621485D02*
X225504285Y-96621485D01*
X201493809Y-118844819D02*
X201493809Y-117844819D01*
X201493809Y-117844819D02*
X201731904Y-117844819D01*
X201731904Y-117844819D02*
X201874761Y-117892438D01*
X201874761Y-117892438D02*
X201969999Y-117987676D01*
X201969999Y-117987676D02*
X202017618Y-118082914D01*
X202017618Y-118082914D02*
X202065237Y-118273390D01*
X202065237Y-118273390D02*
X202065237Y-118416247D01*
X202065237Y-118416247D02*
X202017618Y-118606723D01*
X202017618Y-118606723D02*
X201969999Y-118701961D01*
X201969999Y-118701961D02*
X201874761Y-118797200D01*
X201874761Y-118797200D02*
X201731904Y-118844819D01*
X201731904Y-118844819D02*
X201493809Y-118844819D01*
X202446190Y-117940057D02*
X202493809Y-117892438D01*
X202493809Y-117892438D02*
X202589047Y-117844819D01*
X202589047Y-117844819D02*
X202827142Y-117844819D01*
X202827142Y-117844819D02*
X202922380Y-117892438D01*
X202922380Y-117892438D02*
X202969999Y-117940057D01*
X202969999Y-117940057D02*
X203017618Y-118035295D01*
X203017618Y-118035295D02*
X203017618Y-118130533D01*
X203017618Y-118130533D02*
X202969999Y-118273390D01*
X202969999Y-118273390D02*
X202398571Y-118844819D01*
X202398571Y-118844819D02*
X203017618Y-118844819D01*
X203208095Y-118940057D02*
X203969999Y-118940057D01*
X204779523Y-118844819D02*
X204446190Y-118368628D01*
X204208095Y-118844819D02*
X204208095Y-117844819D01*
X204208095Y-117844819D02*
X204589047Y-117844819D01*
X204589047Y-117844819D02*
X204684285Y-117892438D01*
X204684285Y-117892438D02*
X204731904Y-117940057D01*
X204731904Y-117940057D02*
X204779523Y-118035295D01*
X204779523Y-118035295D02*
X204779523Y-118178152D01*
X204779523Y-118178152D02*
X204731904Y-118273390D01*
X204731904Y-118273390D02*
X204684285Y-118321009D01*
X204684285Y-118321009D02*
X204589047Y-118368628D01*
X204589047Y-118368628D02*
X204208095Y-118368628D01*
X205589047Y-118797200D02*
X205493809Y-118844819D01*
X205493809Y-118844819D02*
X205303333Y-118844819D01*
X205303333Y-118844819D02*
X205208095Y-118797200D01*
X205208095Y-118797200D02*
X205160476Y-118701961D01*
X205160476Y-118701961D02*
X205160476Y-118321009D01*
X205160476Y-118321009D02*
X205208095Y-118225771D01*
X205208095Y-118225771D02*
X205303333Y-118178152D01*
X205303333Y-118178152D02*
X205493809Y-118178152D01*
X205493809Y-118178152D02*
X205589047Y-118225771D01*
X205589047Y-118225771D02*
X205636666Y-118321009D01*
X205636666Y-118321009D02*
X205636666Y-118416247D01*
X205636666Y-118416247D02*
X205160476Y-118511485D01*
X206493809Y-118844819D02*
X206493809Y-117844819D01*
X206493809Y-118797200D02*
X206398571Y-118844819D01*
X206398571Y-118844819D02*
X206208095Y-118844819D01*
X206208095Y-118844819D02*
X206112857Y-118797200D01*
X206112857Y-118797200D02*
X206065238Y-118749580D01*
X206065238Y-118749580D02*
X206017619Y-118654342D01*
X206017619Y-118654342D02*
X206017619Y-118368628D01*
X206017619Y-118368628D02*
X206065238Y-118273390D01*
X206065238Y-118273390D02*
X206112857Y-118225771D01*
X206112857Y-118225771D02*
X206208095Y-118178152D01*
X206208095Y-118178152D02*
X206398571Y-118178152D01*
X206398571Y-118178152D02*
X206493809Y-118225771D01*
X207493809Y-118844819D02*
X206922381Y-118844819D01*
X207208095Y-118844819D02*
X207208095Y-117844819D01*
X207208095Y-117844819D02*
X207112857Y-117987676D01*
X207112857Y-117987676D02*
X207017619Y-118082914D01*
X207017619Y-118082914D02*
X206922381Y-118130533D01*
X202283333Y-96439580D02*
X202235714Y-96487200D01*
X202235714Y-96487200D02*
X202092857Y-96534819D01*
X202092857Y-96534819D02*
X201997619Y-96534819D01*
X201997619Y-96534819D02*
X201854762Y-96487200D01*
X201854762Y-96487200D02*
X201759524Y-96391961D01*
X201759524Y-96391961D02*
X201711905Y-96296723D01*
X201711905Y-96296723D02*
X201664286Y-96106247D01*
X201664286Y-96106247D02*
X201664286Y-95963390D01*
X201664286Y-95963390D02*
X201711905Y-95772914D01*
X201711905Y-95772914D02*
X201759524Y-95677676D01*
X201759524Y-95677676D02*
X201854762Y-95582438D01*
X201854762Y-95582438D02*
X201997619Y-95534819D01*
X201997619Y-95534819D02*
X202092857Y-95534819D01*
X202092857Y-95534819D02*
X202235714Y-95582438D01*
X202235714Y-95582438D02*
X202283333Y-95630057D01*
X203235714Y-96534819D02*
X202664286Y-96534819D01*
X202950000Y-96534819D02*
X202950000Y-95534819D01*
X202950000Y-95534819D02*
X202854762Y-95677676D01*
X202854762Y-95677676D02*
X202759524Y-95772914D01*
X202759524Y-95772914D02*
X202664286Y-95820533D01*
X225258095Y-108964819D02*
X225258095Y-109774342D01*
X225258095Y-109774342D02*
X225305714Y-109869580D01*
X225305714Y-109869580D02*
X225353333Y-109917200D01*
X225353333Y-109917200D02*
X225448571Y-109964819D01*
X225448571Y-109964819D02*
X225639047Y-109964819D01*
X225639047Y-109964819D02*
X225734285Y-109917200D01*
X225734285Y-109917200D02*
X225781904Y-109869580D01*
X225781904Y-109869580D02*
X225829523Y-109774342D01*
X225829523Y-109774342D02*
X225829523Y-108964819D01*
X226258095Y-109060057D02*
X226305714Y-109012438D01*
X226305714Y-109012438D02*
X226400952Y-108964819D01*
X226400952Y-108964819D02*
X226639047Y-108964819D01*
X226639047Y-108964819D02*
X226734285Y-109012438D01*
X226734285Y-109012438D02*
X226781904Y-109060057D01*
X226781904Y-109060057D02*
X226829523Y-109155295D01*
X226829523Y-109155295D02*
X226829523Y-109250533D01*
X226829523Y-109250533D02*
X226781904Y-109393390D01*
X226781904Y-109393390D02*
X226210476Y-109964819D01*
X226210476Y-109964819D02*
X226829523Y-109964819D01*
X226996666Y-89604819D02*
X226996666Y-90319104D01*
X226996666Y-90319104D02*
X226949047Y-90461961D01*
X226949047Y-90461961D02*
X226853809Y-90557200D01*
X226853809Y-90557200D02*
X226710952Y-90604819D01*
X226710952Y-90604819D02*
X226615714Y-90604819D01*
X227425238Y-89700057D02*
X227472857Y-89652438D01*
X227472857Y-89652438D02*
X227568095Y-89604819D01*
X227568095Y-89604819D02*
X227806190Y-89604819D01*
X227806190Y-89604819D02*
X227901428Y-89652438D01*
X227901428Y-89652438D02*
X227949047Y-89700057D01*
X227949047Y-89700057D02*
X227996666Y-89795295D01*
X227996666Y-89795295D02*
X227996666Y-89890533D01*
X227996666Y-89890533D02*
X227949047Y-90033390D01*
X227949047Y-90033390D02*
X227377619Y-90604819D01*
X227377619Y-90604819D02*
X227996666Y-90604819D01*
X217376667Y-118844819D02*
X217376667Y-117844819D01*
X217376667Y-117844819D02*
X217614762Y-117844819D01*
X217614762Y-117844819D02*
X217757619Y-117892438D01*
X217757619Y-117892438D02*
X217852857Y-117987676D01*
X217852857Y-117987676D02*
X217900476Y-118082914D01*
X217900476Y-118082914D02*
X217948095Y-118273390D01*
X217948095Y-118273390D02*
X217948095Y-118416247D01*
X217948095Y-118416247D02*
X217900476Y-118606723D01*
X217900476Y-118606723D02*
X217852857Y-118701961D01*
X217852857Y-118701961D02*
X217757619Y-118797200D01*
X217757619Y-118797200D02*
X217614762Y-118844819D01*
X217614762Y-118844819D02*
X217376667Y-118844819D01*
X218900476Y-118844819D02*
X218329048Y-118844819D01*
X218614762Y-118844819D02*
X218614762Y-117844819D01*
X218614762Y-117844819D02*
X218519524Y-117987676D01*
X218519524Y-117987676D02*
X218424286Y-118082914D01*
X218424286Y-118082914D02*
X218329048Y-118130533D01*
X219090953Y-118940057D02*
X219852857Y-118940057D01*
X220090953Y-118844819D02*
X220090953Y-117844819D01*
X221138571Y-118844819D02*
X220805238Y-118368628D01*
X220567143Y-118844819D02*
X220567143Y-117844819D01*
X220567143Y-117844819D02*
X220948095Y-117844819D01*
X220948095Y-117844819D02*
X221043333Y-117892438D01*
X221043333Y-117892438D02*
X221090952Y-117940057D01*
X221090952Y-117940057D02*
X221138571Y-118035295D01*
X221138571Y-118035295D02*
X221138571Y-118178152D01*
X221138571Y-118178152D02*
X221090952Y-118273390D01*
X221090952Y-118273390D02*
X221043333Y-118321009D01*
X221043333Y-118321009D02*
X220948095Y-118368628D01*
X220948095Y-118368628D02*
X220567143Y-118368628D01*
X222090952Y-118844819D02*
X221519524Y-118844819D01*
X221805238Y-118844819D02*
X221805238Y-117844819D01*
X221805238Y-117844819D02*
X221710000Y-117987676D01*
X221710000Y-117987676D02*
X221614762Y-118082914D01*
X221614762Y-118082914D02*
X221519524Y-118130533D01*
X223264819Y-90773333D02*
X223979104Y-90773333D01*
X223979104Y-90773333D02*
X224121961Y-90820952D01*
X224121961Y-90820952D02*
X224217200Y-90916190D01*
X224217200Y-90916190D02*
X224264819Y-91059047D01*
X224264819Y-91059047D02*
X224264819Y-91154285D01*
X224264819Y-89773333D02*
X224264819Y-90344761D01*
X224264819Y-90059047D02*
X223264819Y-90059047D01*
X223264819Y-90059047D02*
X223407676Y-90154285D01*
X223407676Y-90154285D02*
X223502914Y-90249523D01*
X223502914Y-90249523D02*
X223550533Y-90344761D01*
X215483333Y-87049580D02*
X215435714Y-87097200D01*
X215435714Y-87097200D02*
X215292857Y-87144819D01*
X215292857Y-87144819D02*
X215197619Y-87144819D01*
X215197619Y-87144819D02*
X215054762Y-87097200D01*
X215054762Y-87097200D02*
X214959524Y-87001961D01*
X214959524Y-87001961D02*
X214911905Y-86906723D01*
X214911905Y-86906723D02*
X214864286Y-86716247D01*
X214864286Y-86716247D02*
X214864286Y-86573390D01*
X214864286Y-86573390D02*
X214911905Y-86382914D01*
X214911905Y-86382914D02*
X214959524Y-86287676D01*
X214959524Y-86287676D02*
X215054762Y-86192438D01*
X215054762Y-86192438D02*
X215197619Y-86144819D01*
X215197619Y-86144819D02*
X215292857Y-86144819D01*
X215292857Y-86144819D02*
X215435714Y-86192438D01*
X215435714Y-86192438D02*
X215483333Y-86240057D01*
X215816667Y-86144819D02*
X216435714Y-86144819D01*
X216435714Y-86144819D02*
X216102381Y-86525771D01*
X216102381Y-86525771D02*
X216245238Y-86525771D01*
X216245238Y-86525771D02*
X216340476Y-86573390D01*
X216340476Y-86573390D02*
X216388095Y-86621009D01*
X216388095Y-86621009D02*
X216435714Y-86716247D01*
X216435714Y-86716247D02*
X216435714Y-86954342D01*
X216435714Y-86954342D02*
X216388095Y-87049580D01*
X216388095Y-87049580D02*
X216340476Y-87097200D01*
X216340476Y-87097200D02*
X216245238Y-87144819D01*
X216245238Y-87144819D02*
X215959524Y-87144819D01*
X215959524Y-87144819D02*
X215864286Y-87097200D01*
X215864286Y-87097200D02*
X215816667Y-87049580D01*
X213713333Y-102789580D02*
X213665714Y-102837200D01*
X213665714Y-102837200D02*
X213522857Y-102884819D01*
X213522857Y-102884819D02*
X213427619Y-102884819D01*
X213427619Y-102884819D02*
X213284762Y-102837200D01*
X213284762Y-102837200D02*
X213189524Y-102741961D01*
X213189524Y-102741961D02*
X213141905Y-102646723D01*
X213141905Y-102646723D02*
X213094286Y-102456247D01*
X213094286Y-102456247D02*
X213094286Y-102313390D01*
X213094286Y-102313390D02*
X213141905Y-102122914D01*
X213141905Y-102122914D02*
X213189524Y-102027676D01*
X213189524Y-102027676D02*
X213284762Y-101932438D01*
X213284762Y-101932438D02*
X213427619Y-101884819D01*
X213427619Y-101884819D02*
X213522857Y-101884819D01*
X213522857Y-101884819D02*
X213665714Y-101932438D01*
X213665714Y-101932438D02*
X213713333Y-101980057D01*
X214094286Y-101980057D02*
X214141905Y-101932438D01*
X214141905Y-101932438D02*
X214237143Y-101884819D01*
X214237143Y-101884819D02*
X214475238Y-101884819D01*
X214475238Y-101884819D02*
X214570476Y-101932438D01*
X214570476Y-101932438D02*
X214618095Y-101980057D01*
X214618095Y-101980057D02*
X214665714Y-102075295D01*
X214665714Y-102075295D02*
X214665714Y-102170533D01*
X214665714Y-102170533D02*
X214618095Y-102313390D01*
X214618095Y-102313390D02*
X214046667Y-102884819D01*
X214046667Y-102884819D02*
X214665714Y-102884819D01*
X208863333Y-86159580D02*
X208815714Y-86207200D01*
X208815714Y-86207200D02*
X208672857Y-86254819D01*
X208672857Y-86254819D02*
X208577619Y-86254819D01*
X208577619Y-86254819D02*
X208434762Y-86207200D01*
X208434762Y-86207200D02*
X208339524Y-86111961D01*
X208339524Y-86111961D02*
X208291905Y-86016723D01*
X208291905Y-86016723D02*
X208244286Y-85826247D01*
X208244286Y-85826247D02*
X208244286Y-85683390D01*
X208244286Y-85683390D02*
X208291905Y-85492914D01*
X208291905Y-85492914D02*
X208339524Y-85397676D01*
X208339524Y-85397676D02*
X208434762Y-85302438D01*
X208434762Y-85302438D02*
X208577619Y-85254819D01*
X208577619Y-85254819D02*
X208672857Y-85254819D01*
X208672857Y-85254819D02*
X208815714Y-85302438D01*
X208815714Y-85302438D02*
X208863333Y-85350057D01*
X209768095Y-85254819D02*
X209291905Y-85254819D01*
X209291905Y-85254819D02*
X209244286Y-85731009D01*
X209244286Y-85731009D02*
X209291905Y-85683390D01*
X209291905Y-85683390D02*
X209387143Y-85635771D01*
X209387143Y-85635771D02*
X209625238Y-85635771D01*
X209625238Y-85635771D02*
X209720476Y-85683390D01*
X209720476Y-85683390D02*
X209768095Y-85731009D01*
X209768095Y-85731009D02*
X209815714Y-85826247D01*
X209815714Y-85826247D02*
X209815714Y-86064342D01*
X209815714Y-86064342D02*
X209768095Y-86159580D01*
X209768095Y-86159580D02*
X209720476Y-86207200D01*
X209720476Y-86207200D02*
X209625238Y-86254819D01*
X209625238Y-86254819D02*
X209387143Y-86254819D01*
X209387143Y-86254819D02*
X209291905Y-86207200D01*
X209291905Y-86207200D02*
X209244286Y-86159580D01*
X224456666Y-101034819D02*
X224456666Y-101749104D01*
X224456666Y-101749104D02*
X224409047Y-101891961D01*
X224409047Y-101891961D02*
X224313809Y-101987200D01*
X224313809Y-101987200D02*
X224170952Y-102034819D01*
X224170952Y-102034819D02*
X224075714Y-102034819D01*
X224837619Y-101034819D02*
X225456666Y-101034819D01*
X225456666Y-101034819D02*
X225123333Y-101415771D01*
X225123333Y-101415771D02*
X225266190Y-101415771D01*
X225266190Y-101415771D02*
X225361428Y-101463390D01*
X225361428Y-101463390D02*
X225409047Y-101511009D01*
X225409047Y-101511009D02*
X225456666Y-101606247D01*
X225456666Y-101606247D02*
X225456666Y-101844342D01*
X225456666Y-101844342D02*
X225409047Y-101939580D01*
X225409047Y-101939580D02*
X225361428Y-101987200D01*
X225361428Y-101987200D02*
X225266190Y-102034819D01*
X225266190Y-102034819D02*
X224980476Y-102034819D01*
X224980476Y-102034819D02*
X224885238Y-101987200D01*
X224885238Y-101987200D02*
X224837619Y-101939580D01*
X206844819Y-106846666D02*
X206368628Y-107179999D01*
X206844819Y-107418094D02*
X205844819Y-107418094D01*
X205844819Y-107418094D02*
X205844819Y-107037142D01*
X205844819Y-107037142D02*
X205892438Y-106941904D01*
X205892438Y-106941904D02*
X205940057Y-106894285D01*
X205940057Y-106894285D02*
X206035295Y-106846666D01*
X206035295Y-106846666D02*
X206178152Y-106846666D01*
X206178152Y-106846666D02*
X206273390Y-106894285D01*
X206273390Y-106894285D02*
X206321009Y-106941904D01*
X206321009Y-106941904D02*
X206368628Y-107037142D01*
X206368628Y-107037142D02*
X206368628Y-107418094D01*
X205844819Y-106513332D02*
X205844819Y-105894285D01*
X205844819Y-105894285D02*
X206225771Y-106227618D01*
X206225771Y-106227618D02*
X206225771Y-106084761D01*
X206225771Y-106084761D02*
X206273390Y-105989523D01*
X206273390Y-105989523D02*
X206321009Y-105941904D01*
X206321009Y-105941904D02*
X206416247Y-105894285D01*
X206416247Y-105894285D02*
X206654342Y-105894285D01*
X206654342Y-105894285D02*
X206749580Y-105941904D01*
X206749580Y-105941904D02*
X206797200Y-105989523D01*
X206797200Y-105989523D02*
X206844819Y-106084761D01*
X206844819Y-106084761D02*
X206844819Y-106370475D01*
X206844819Y-106370475D02*
X206797200Y-106465713D01*
X206797200Y-106465713D02*
X206749580Y-106513332D01*
X213164819Y-99496666D02*
X212688628Y-99829999D01*
X213164819Y-100068094D02*
X212164819Y-100068094D01*
X212164819Y-100068094D02*
X212164819Y-99687142D01*
X212164819Y-99687142D02*
X212212438Y-99591904D01*
X212212438Y-99591904D02*
X212260057Y-99544285D01*
X212260057Y-99544285D02*
X212355295Y-99496666D01*
X212355295Y-99496666D02*
X212498152Y-99496666D01*
X212498152Y-99496666D02*
X212593390Y-99544285D01*
X212593390Y-99544285D02*
X212641009Y-99591904D01*
X212641009Y-99591904D02*
X212688628Y-99687142D01*
X212688628Y-99687142D02*
X212688628Y-100068094D01*
X212164819Y-98591904D02*
X212164819Y-99068094D01*
X212164819Y-99068094D02*
X212641009Y-99115713D01*
X212641009Y-99115713D02*
X212593390Y-99068094D01*
X212593390Y-99068094D02*
X212545771Y-98972856D01*
X212545771Y-98972856D02*
X212545771Y-98734761D01*
X212545771Y-98734761D02*
X212593390Y-98639523D01*
X212593390Y-98639523D02*
X212641009Y-98591904D01*
X212641009Y-98591904D02*
X212736247Y-98544285D01*
X212736247Y-98544285D02*
X212974342Y-98544285D01*
X212974342Y-98544285D02*
X213069580Y-98591904D01*
X213069580Y-98591904D02*
X213117200Y-98639523D01*
X213117200Y-98639523D02*
X213164819Y-98734761D01*
X213164819Y-98734761D02*
X213164819Y-98972856D01*
X213164819Y-98972856D02*
X213117200Y-99068094D01*
X213117200Y-99068094D02*
X213069580Y-99115713D01*
X204374761Y-110020057D02*
X204279523Y-109972438D01*
X204279523Y-109972438D02*
X204184285Y-109877200D01*
X204184285Y-109877200D02*
X204041428Y-109734342D01*
X204041428Y-109734342D02*
X203946190Y-109686723D01*
X203946190Y-109686723D02*
X203850952Y-109686723D01*
X203898571Y-109924819D02*
X203803333Y-109877200D01*
X203803333Y-109877200D02*
X203708095Y-109781961D01*
X203708095Y-109781961D02*
X203660476Y-109591485D01*
X203660476Y-109591485D02*
X203660476Y-109258152D01*
X203660476Y-109258152D02*
X203708095Y-109067676D01*
X203708095Y-109067676D02*
X203803333Y-108972438D01*
X203803333Y-108972438D02*
X203898571Y-108924819D01*
X203898571Y-108924819D02*
X204089047Y-108924819D01*
X204089047Y-108924819D02*
X204184285Y-108972438D01*
X204184285Y-108972438D02*
X204279523Y-109067676D01*
X204279523Y-109067676D02*
X204327142Y-109258152D01*
X204327142Y-109258152D02*
X204327142Y-109591485D01*
X204327142Y-109591485D02*
X204279523Y-109781961D01*
X204279523Y-109781961D02*
X204184285Y-109877200D01*
X204184285Y-109877200D02*
X204089047Y-109924819D01*
X204089047Y-109924819D02*
X203898571Y-109924819D01*
X205279523Y-109924819D02*
X204708095Y-109924819D01*
X204993809Y-109924819D02*
X204993809Y-108924819D01*
X204993809Y-108924819D02*
X204898571Y-109067676D01*
X204898571Y-109067676D02*
X204803333Y-109162914D01*
X204803333Y-109162914D02*
X204708095Y-109210533D01*
X218274819Y-114466666D02*
X217798628Y-114799999D01*
X218274819Y-115038094D02*
X217274819Y-115038094D01*
X217274819Y-115038094D02*
X217274819Y-114657142D01*
X217274819Y-114657142D02*
X217322438Y-114561904D01*
X217322438Y-114561904D02*
X217370057Y-114514285D01*
X217370057Y-114514285D02*
X217465295Y-114466666D01*
X217465295Y-114466666D02*
X217608152Y-114466666D01*
X217608152Y-114466666D02*
X217703390Y-114514285D01*
X217703390Y-114514285D02*
X217751009Y-114561904D01*
X217751009Y-114561904D02*
X217798628Y-114657142D01*
X217798628Y-114657142D02*
X217798628Y-115038094D01*
X218274819Y-113514285D02*
X218274819Y-114085713D01*
X218274819Y-113799999D02*
X217274819Y-113799999D01*
X217274819Y-113799999D02*
X217417676Y-113895237D01*
X217417676Y-113895237D02*
X217512914Y-113990475D01*
X217512914Y-113990475D02*
X217560533Y-114085713D01*
X211959580Y-98206666D02*
X212007200Y-98254285D01*
X212007200Y-98254285D02*
X212054819Y-98397142D01*
X212054819Y-98397142D02*
X212054819Y-98492380D01*
X212054819Y-98492380D02*
X212007200Y-98635237D01*
X212007200Y-98635237D02*
X211911961Y-98730475D01*
X211911961Y-98730475D02*
X211816723Y-98778094D01*
X211816723Y-98778094D02*
X211626247Y-98825713D01*
X211626247Y-98825713D02*
X211483390Y-98825713D01*
X211483390Y-98825713D02*
X211292914Y-98778094D01*
X211292914Y-98778094D02*
X211197676Y-98730475D01*
X211197676Y-98730475D02*
X211102438Y-98635237D01*
X211102438Y-98635237D02*
X211054819Y-98492380D01*
X211054819Y-98492380D02*
X211054819Y-98397142D01*
X211054819Y-98397142D02*
X211102438Y-98254285D01*
X211102438Y-98254285D02*
X211150057Y-98206666D01*
X211054819Y-97349523D02*
X211054819Y-97539999D01*
X211054819Y-97539999D02*
X211102438Y-97635237D01*
X211102438Y-97635237D02*
X211150057Y-97682856D01*
X211150057Y-97682856D02*
X211292914Y-97778094D01*
X211292914Y-97778094D02*
X211483390Y-97825713D01*
X211483390Y-97825713D02*
X211864342Y-97825713D01*
X211864342Y-97825713D02*
X211959580Y-97778094D01*
X211959580Y-97778094D02*
X212007200Y-97730475D01*
X212007200Y-97730475D02*
X212054819Y-97635237D01*
X212054819Y-97635237D02*
X212054819Y-97444761D01*
X212054819Y-97444761D02*
X212007200Y-97349523D01*
X212007200Y-97349523D02*
X211959580Y-97301904D01*
X211959580Y-97301904D02*
X211864342Y-97254285D01*
X211864342Y-97254285D02*
X211626247Y-97254285D01*
X211626247Y-97254285D02*
X211531009Y-97301904D01*
X211531009Y-97301904D02*
X211483390Y-97349523D01*
X211483390Y-97349523D02*
X211435771Y-97444761D01*
X211435771Y-97444761D02*
X211435771Y-97635237D01*
X211435771Y-97635237D02*
X211483390Y-97730475D01*
X211483390Y-97730475D02*
X211531009Y-97778094D01*
X211531009Y-97778094D02*
X211626247Y-97825713D01*
X212524819Y-21923333D02*
X213239104Y-21923333D01*
X213239104Y-21923333D02*
X213381961Y-21970952D01*
X213381961Y-21970952D02*
X213477200Y-22066190D01*
X213477200Y-22066190D02*
X213524819Y-22209047D01*
X213524819Y-22209047D02*
X213524819Y-22304285D01*
X212524819Y-21542380D02*
X212524819Y-20875714D01*
X212524819Y-20875714D02*
X213524819Y-21304285D01*
X219614761Y-103670057D02*
X219519523Y-103622438D01*
X219519523Y-103622438D02*
X219424285Y-103527200D01*
X219424285Y-103527200D02*
X219281428Y-103384342D01*
X219281428Y-103384342D02*
X219186190Y-103336723D01*
X219186190Y-103336723D02*
X219090952Y-103336723D01*
X219138571Y-103574819D02*
X219043333Y-103527200D01*
X219043333Y-103527200D02*
X218948095Y-103431961D01*
X218948095Y-103431961D02*
X218900476Y-103241485D01*
X218900476Y-103241485D02*
X218900476Y-102908152D01*
X218900476Y-102908152D02*
X218948095Y-102717676D01*
X218948095Y-102717676D02*
X219043333Y-102622438D01*
X219043333Y-102622438D02*
X219138571Y-102574819D01*
X219138571Y-102574819D02*
X219329047Y-102574819D01*
X219329047Y-102574819D02*
X219424285Y-102622438D01*
X219424285Y-102622438D02*
X219519523Y-102717676D01*
X219519523Y-102717676D02*
X219567142Y-102908152D01*
X219567142Y-102908152D02*
X219567142Y-103241485D01*
X219567142Y-103241485D02*
X219519523Y-103431961D01*
X219519523Y-103431961D02*
X219424285Y-103527200D01*
X219424285Y-103527200D02*
X219329047Y-103574819D01*
X219329047Y-103574819D02*
X219138571Y-103574819D01*
X219948095Y-102670057D02*
X219995714Y-102622438D01*
X219995714Y-102622438D02*
X220090952Y-102574819D01*
X220090952Y-102574819D02*
X220329047Y-102574819D01*
X220329047Y-102574819D02*
X220424285Y-102622438D01*
X220424285Y-102622438D02*
X220471904Y-102670057D01*
X220471904Y-102670057D02*
X220519523Y-102765295D01*
X220519523Y-102765295D02*
X220519523Y-102860533D01*
X220519523Y-102860533D02*
X220471904Y-103003390D01*
X220471904Y-103003390D02*
X219900476Y-103574819D01*
X219900476Y-103574819D02*
X220519523Y-103574819D01*
X208784580Y-97976666D02*
X208832200Y-98024285D01*
X208832200Y-98024285D02*
X208879819Y-98167142D01*
X208879819Y-98167142D02*
X208879819Y-98262380D01*
X208879819Y-98262380D02*
X208832200Y-98405237D01*
X208832200Y-98405237D02*
X208736961Y-98500475D01*
X208736961Y-98500475D02*
X208641723Y-98548094D01*
X208641723Y-98548094D02*
X208451247Y-98595713D01*
X208451247Y-98595713D02*
X208308390Y-98595713D01*
X208308390Y-98595713D02*
X208117914Y-98548094D01*
X208117914Y-98548094D02*
X208022676Y-98500475D01*
X208022676Y-98500475D02*
X207927438Y-98405237D01*
X207927438Y-98405237D02*
X207879819Y-98262380D01*
X207879819Y-98262380D02*
X207879819Y-98167142D01*
X207879819Y-98167142D02*
X207927438Y-98024285D01*
X207927438Y-98024285D02*
X207975057Y-97976666D01*
X208213152Y-97119523D02*
X208879819Y-97119523D01*
X207832200Y-97357618D02*
X208546485Y-97595713D01*
X208546485Y-97595713D02*
X208546485Y-96976666D01*
X226996666Y-84524819D02*
X226996666Y-85239104D01*
X226996666Y-85239104D02*
X226949047Y-85381961D01*
X226949047Y-85381961D02*
X226853809Y-85477200D01*
X226853809Y-85477200D02*
X226710952Y-85524819D01*
X226710952Y-85524819D02*
X226615714Y-85524819D01*
X227949047Y-84524819D02*
X227472857Y-84524819D01*
X227472857Y-84524819D02*
X227425238Y-85001009D01*
X227425238Y-85001009D02*
X227472857Y-84953390D01*
X227472857Y-84953390D02*
X227568095Y-84905771D01*
X227568095Y-84905771D02*
X227806190Y-84905771D01*
X227806190Y-84905771D02*
X227901428Y-84953390D01*
X227901428Y-84953390D02*
X227949047Y-85001009D01*
X227949047Y-85001009D02*
X227996666Y-85096247D01*
X227996666Y-85096247D02*
X227996666Y-85334342D01*
X227996666Y-85334342D02*
X227949047Y-85429580D01*
X227949047Y-85429580D02*
X227901428Y-85477200D01*
X227901428Y-85477200D02*
X227806190Y-85524819D01*
X227806190Y-85524819D02*
X227568095Y-85524819D01*
X227568095Y-85524819D02*
X227472857Y-85477200D01*
X227472857Y-85477200D02*
X227425238Y-85429580D01*
X222084819Y-99226666D02*
X221608628Y-99559999D01*
X222084819Y-99798094D02*
X221084819Y-99798094D01*
X221084819Y-99798094D02*
X221084819Y-99417142D01*
X221084819Y-99417142D02*
X221132438Y-99321904D01*
X221132438Y-99321904D02*
X221180057Y-99274285D01*
X221180057Y-99274285D02*
X221275295Y-99226666D01*
X221275295Y-99226666D02*
X221418152Y-99226666D01*
X221418152Y-99226666D02*
X221513390Y-99274285D01*
X221513390Y-99274285D02*
X221561009Y-99321904D01*
X221561009Y-99321904D02*
X221608628Y-99417142D01*
X221608628Y-99417142D02*
X221608628Y-99798094D01*
X221418152Y-98369523D02*
X222084819Y-98369523D01*
X221037200Y-98607618D02*
X221751485Y-98845713D01*
X221751485Y-98845713D02*
X221751485Y-98226666D01*
X223354819Y-114466666D02*
X222878628Y-114799999D01*
X223354819Y-115038094D02*
X222354819Y-115038094D01*
X222354819Y-115038094D02*
X222354819Y-114657142D01*
X222354819Y-114657142D02*
X222402438Y-114561904D01*
X222402438Y-114561904D02*
X222450057Y-114514285D01*
X222450057Y-114514285D02*
X222545295Y-114466666D01*
X222545295Y-114466666D02*
X222688152Y-114466666D01*
X222688152Y-114466666D02*
X222783390Y-114514285D01*
X222783390Y-114514285D02*
X222831009Y-114561904D01*
X222831009Y-114561904D02*
X222878628Y-114657142D01*
X222878628Y-114657142D02*
X222878628Y-115038094D01*
X222450057Y-114085713D02*
X222402438Y-114038094D01*
X222402438Y-114038094D02*
X222354819Y-113942856D01*
X222354819Y-113942856D02*
X222354819Y-113704761D01*
X222354819Y-113704761D02*
X222402438Y-113609523D01*
X222402438Y-113609523D02*
X222450057Y-113561904D01*
X222450057Y-113561904D02*
X222545295Y-113514285D01*
X222545295Y-113514285D02*
X222640533Y-113514285D01*
X222640533Y-113514285D02*
X222783390Y-113561904D01*
X222783390Y-113561904D02*
X223354819Y-114133332D01*
X223354819Y-114133332D02*
X223354819Y-113514285D01*
X206678095Y-84274819D02*
X206678095Y-85084342D01*
X206678095Y-85084342D02*
X206725714Y-85179580D01*
X206725714Y-85179580D02*
X206773333Y-85227200D01*
X206773333Y-85227200D02*
X206868571Y-85274819D01*
X206868571Y-85274819D02*
X207059047Y-85274819D01*
X207059047Y-85274819D02*
X207154285Y-85227200D01*
X207154285Y-85227200D02*
X207201904Y-85179580D01*
X207201904Y-85179580D02*
X207249523Y-85084342D01*
X207249523Y-85084342D02*
X207249523Y-84274819D01*
X207630476Y-84274819D02*
X208249523Y-84274819D01*
X208249523Y-84274819D02*
X207916190Y-84655771D01*
X207916190Y-84655771D02*
X208059047Y-84655771D01*
X208059047Y-84655771D02*
X208154285Y-84703390D01*
X208154285Y-84703390D02*
X208201904Y-84751009D01*
X208201904Y-84751009D02*
X208249523Y-84846247D01*
X208249523Y-84846247D02*
X208249523Y-85084342D01*
X208249523Y-85084342D02*
X208201904Y-85179580D01*
X208201904Y-85179580D02*
X208154285Y-85227200D01*
X208154285Y-85227200D02*
X208059047Y-85274819D01*
X208059047Y-85274819D02*
X207773333Y-85274819D01*
X207773333Y-85274819D02*
X207678095Y-85227200D01*
X207678095Y-85227200D02*
X207630476Y-85179580D01*
X203273626Y-22098567D02*
X203273626Y-22908403D01*
X203273626Y-22908403D02*
X203321263Y-23003678D01*
X203321263Y-23003678D02*
X203368901Y-23051316D01*
X203368901Y-23051316D02*
X203464175Y-23098953D01*
X203464175Y-23098953D02*
X203654725Y-23098953D01*
X203654725Y-23098953D02*
X203750000Y-23051316D01*
X203750000Y-23051316D02*
X203797637Y-23003678D01*
X203797637Y-23003678D02*
X203845275Y-22908403D01*
X203845275Y-22908403D02*
X203845275Y-22098567D01*
X204845660Y-23098953D02*
X204274011Y-23098953D01*
X204559836Y-23098953D02*
X204559836Y-22098567D01*
X204559836Y-22098567D02*
X204464561Y-22241479D01*
X204464561Y-22241479D02*
X204369286Y-22336754D01*
X204369286Y-22336754D02*
X204274011Y-22384392D01*
D11*
%TO.C,R6*%
X210170000Y-108570000D02*
X214010000Y-108570000D01*
X210170000Y-110410000D02*
X214010000Y-110410000D01*
%TO.C,R7*%
X211170000Y-101250000D02*
X211170000Y-97410000D01*
X213010000Y-101250000D02*
X213010000Y-97410000D01*
%TO.C,J4*%
X224095000Y-97375000D02*
X224790000Y-97375000D01*
X224095000Y-98060000D02*
X224095000Y-97375000D01*
X224095000Y-98745000D02*
X224095000Y-99620000D01*
X224095000Y-98745000D02*
X224181724Y-98745000D01*
X224095000Y-99620000D02*
X224395507Y-99620000D01*
X225184493Y-99620000D02*
X225485000Y-99620000D01*
X225398276Y-98745000D02*
X225485000Y-98745000D01*
X225485000Y-98745000D02*
X225485000Y-99620000D01*
%TO.C,D2_Red1*%
X202760000Y-119390000D02*
X202760000Y-119570000D01*
X202760000Y-119390000D02*
X206180000Y-119390000D01*
X202760000Y-121730000D02*
X202760000Y-121910000D01*
X202760000Y-121910000D02*
X206180000Y-121910000D01*
X202880000Y-119390000D02*
X202880000Y-119570000D01*
X202880000Y-121730000D02*
X202880000Y-121910000D01*
X203000000Y-119390000D02*
X203000000Y-119570000D01*
X203000000Y-121730000D02*
X203000000Y-121910000D01*
X206180000Y-119390000D02*
X206180000Y-119555000D01*
X206180000Y-121745000D02*
X206180000Y-121910000D01*
%TO.C,C1*%
X200180199Y-98135000D02*
X200580199Y-98135000D01*
X200380199Y-97935000D02*
X200380199Y-98335000D01*
X202450000Y-97250000D02*
X202450000Y-98490000D01*
X202450000Y-100170000D02*
X202450000Y-101410000D01*
X202490000Y-97250000D02*
X202490000Y-98490000D01*
X202490000Y-100170000D02*
X202490000Y-101410000D01*
X202530000Y-97251000D02*
X202530000Y-98490000D01*
X202530000Y-100170000D02*
X202530000Y-101409000D01*
X202570000Y-97253000D02*
X202570000Y-98490000D01*
X202570000Y-100170000D02*
X202570000Y-101407000D01*
X202610000Y-97256000D02*
X202610000Y-98490000D01*
X202610000Y-100170000D02*
X202610000Y-101404000D01*
X202650000Y-97259000D02*
X202650000Y-98490000D01*
X202650000Y-100170000D02*
X202650000Y-101401000D01*
X202690000Y-97263000D02*
X202690000Y-98490000D01*
X202690000Y-100170000D02*
X202690000Y-101397000D01*
X202730000Y-97268000D02*
X202730000Y-98490000D01*
X202730000Y-100170000D02*
X202730000Y-101392000D01*
X202770000Y-97274000D02*
X202770000Y-98490000D01*
X202770000Y-100170000D02*
X202770000Y-101386000D01*
X202810000Y-97280000D02*
X202810000Y-98490000D01*
X202810000Y-100170000D02*
X202810000Y-101380000D01*
X202850000Y-97288000D02*
X202850000Y-98490000D01*
X202850000Y-100170000D02*
X202850000Y-101372000D01*
X202890000Y-97296000D02*
X202890000Y-98490000D01*
X202890000Y-100170000D02*
X202890000Y-101364000D01*
X202930000Y-97305000D02*
X202930000Y-98490000D01*
X202930000Y-100170000D02*
X202930000Y-101355000D01*
X202970000Y-97314000D02*
X202970000Y-98490000D01*
X202970000Y-100170000D02*
X202970000Y-101346000D01*
X203010000Y-97325000D02*
X203010000Y-98490000D01*
X203010000Y-100170000D02*
X203010000Y-101335000D01*
X203050000Y-97336000D02*
X203050000Y-98490000D01*
X203050000Y-100170000D02*
X203050000Y-101324000D01*
X203090000Y-97348000D02*
X203090000Y-98490000D01*
X203090000Y-100170000D02*
X203090000Y-101312000D01*
X203130000Y-97362000D02*
X203130000Y-98490000D01*
X203130000Y-100170000D02*
X203130000Y-101298000D01*
X203171000Y-97376000D02*
X203171000Y-98490000D01*
X203171000Y-100170000D02*
X203171000Y-101284000D01*
X203211000Y-97390000D02*
X203211000Y-98490000D01*
X203211000Y-100170000D02*
X203211000Y-101270000D01*
X203251000Y-97406000D02*
X203251000Y-98490000D01*
X203251000Y-100170000D02*
X203251000Y-101254000D01*
X203291000Y-97423000D02*
X203291000Y-98490000D01*
X203291000Y-100170000D02*
X203291000Y-101237000D01*
X203331000Y-97441000D02*
X203331000Y-98490000D01*
X203331000Y-100170000D02*
X203331000Y-101219000D01*
X203371000Y-97460000D02*
X203371000Y-98490000D01*
X203371000Y-100170000D02*
X203371000Y-101200000D01*
X203411000Y-97479000D02*
X203411000Y-98490000D01*
X203411000Y-100170000D02*
X203411000Y-101181000D01*
X203451000Y-97500000D02*
X203451000Y-98490000D01*
X203451000Y-100170000D02*
X203451000Y-101160000D01*
X203491000Y-97522000D02*
X203491000Y-98490000D01*
X203491000Y-100170000D02*
X203491000Y-101138000D01*
X203531000Y-97545000D02*
X203531000Y-98490000D01*
X203531000Y-100170000D02*
X203531000Y-101115000D01*
X203571000Y-97570000D02*
X203571000Y-98490000D01*
X203571000Y-100170000D02*
X203571000Y-101090000D01*
X203611000Y-97595000D02*
X203611000Y-98490000D01*
X203611000Y-100170000D02*
X203611000Y-101065000D01*
X203651000Y-97622000D02*
X203651000Y-98490000D01*
X203651000Y-100170000D02*
X203651000Y-101038000D01*
X203691000Y-97650000D02*
X203691000Y-98490000D01*
X203691000Y-100170000D02*
X203691000Y-101010000D01*
X203731000Y-97680000D02*
X203731000Y-98490000D01*
X203731000Y-100170000D02*
X203731000Y-100980000D01*
X203771000Y-97711000D02*
X203771000Y-98490000D01*
X203771000Y-100170000D02*
X203771000Y-100949000D01*
X203811000Y-97743000D02*
X203811000Y-98490000D01*
X203811000Y-100170000D02*
X203811000Y-100917000D01*
X203851000Y-97778000D02*
X203851000Y-98490000D01*
X203851000Y-100170000D02*
X203851000Y-100882000D01*
X203891000Y-97814000D02*
X203891000Y-98490000D01*
X203891000Y-100170000D02*
X203891000Y-100846000D01*
X203931000Y-97852000D02*
X203931000Y-98490000D01*
X203931000Y-100170000D02*
X203931000Y-100808000D01*
X203971000Y-97892000D02*
X203971000Y-98490000D01*
X203971000Y-100170000D02*
X203971000Y-100768000D01*
X204011000Y-97934000D02*
X204011000Y-98490000D01*
X204011000Y-100170000D02*
X204011000Y-100726000D01*
X204051000Y-97979000D02*
X204051000Y-100681000D01*
X204091000Y-98026000D02*
X204091000Y-100634000D01*
X204131000Y-98076000D02*
X204131000Y-100584000D01*
X204171000Y-98130000D02*
X204171000Y-100530000D01*
X204211000Y-98188000D02*
X204211000Y-100472000D01*
X204251000Y-98250000D02*
X204251000Y-100410000D01*
X204291000Y-98317000D02*
X204291000Y-100343000D01*
X204331000Y-98390000D02*
X204331000Y-100270000D01*
X204371000Y-98471000D02*
X204371000Y-100189000D01*
X204411000Y-98562000D02*
X204411000Y-100098000D01*
X204451000Y-98666000D02*
X204451000Y-99994000D01*
X204491000Y-98793000D02*
X204491000Y-99867000D01*
X204531000Y-98960000D02*
X204531000Y-99700000D01*
X204570000Y-99330000D02*
G75*
G03*
X204570000Y-99330000I-2120000J0D01*
G01*
%TO.C,U2*%
X223560000Y-114060000D02*
X223340000Y-114060000D01*
X229140000Y-110400000D02*
X226060000Y-110400000D01*
X229220000Y-114060000D02*
X228760000Y-114060000D01*
X229220000Y-114060000D02*
X229220000Y-112860000D01*
X223560001Y-114060000D02*
G75*
G03*
X228759999Y-114060000I2599999J1100000D01*
G01*
%TO.C,J2*%
X226635000Y-91025000D02*
X227330000Y-91025000D01*
X226635000Y-91710000D02*
X226635000Y-91025000D01*
X226635000Y-92395000D02*
X226635000Y-94270000D01*
X226635000Y-92395000D02*
X226721724Y-92395000D01*
X226635000Y-94270000D02*
X226935507Y-94270000D01*
X227724493Y-94270000D02*
X228025000Y-94270000D01*
X227938276Y-92395000D02*
X228025000Y-92395000D01*
X228025000Y-92395000D02*
X228025000Y-94270000D01*
%TO.C,D1_IR1*%
X218000000Y-119390000D02*
X218000000Y-119570000D01*
X218000000Y-119390000D02*
X221420000Y-119390000D01*
X218000000Y-121730000D02*
X218000000Y-121910000D01*
X218000000Y-121910000D02*
X221420000Y-121910000D01*
X218120000Y-119390000D02*
X218120000Y-119570000D01*
X218120000Y-121730000D02*
X218120000Y-121910000D01*
X218240000Y-119390000D02*
X218240000Y-119570000D01*
X218240000Y-121730000D02*
X218240000Y-121910000D01*
X221420000Y-119390000D02*
X221420000Y-119555000D01*
X221420000Y-121745000D02*
X221420000Y-121910000D01*
%TO.C,J1*%
X222935000Y-89745000D02*
X222935000Y-90440000D01*
X222250000Y-89745000D02*
X222935000Y-89745000D01*
X221565000Y-89745000D02*
X220690000Y-89745000D01*
X221565000Y-89745000D02*
X221565000Y-89831724D01*
X220690000Y-89745000D02*
X220690000Y-90045507D01*
X220690000Y-90834493D02*
X220690000Y-91135000D01*
X221565000Y-91048276D02*
X221565000Y-91135000D01*
X221565000Y-91135000D02*
X220690000Y-91135000D01*
%TO.C,C3*%
X212845225Y-88965000D02*
X213345225Y-88965000D01*
X213095225Y-88715000D02*
X213095225Y-89215000D01*
X215650000Y-87860000D02*
X215650000Y-93020000D01*
X215690000Y-87860000D02*
X215690000Y-93020000D01*
X215730000Y-87861000D02*
X215730000Y-93019000D01*
X215770000Y-87862000D02*
X215770000Y-93018000D01*
X215810000Y-87864000D02*
X215810000Y-93016000D01*
X215850000Y-87867000D02*
X215850000Y-93013000D01*
X215890000Y-87871000D02*
X215890000Y-89400000D01*
X215890000Y-91480000D02*
X215890000Y-93009000D01*
X215930000Y-87875000D02*
X215930000Y-89400000D01*
X215930000Y-91480000D02*
X215930000Y-93005000D01*
X215970000Y-87879000D02*
X215970000Y-89400000D01*
X215970000Y-91480000D02*
X215970000Y-93001000D01*
X216010000Y-87884000D02*
X216010000Y-89400000D01*
X216010000Y-91480000D02*
X216010000Y-92996000D01*
X216050000Y-87890000D02*
X216050000Y-89400000D01*
X216050000Y-91480000D02*
X216050000Y-92990000D01*
X216090000Y-87897000D02*
X216090000Y-89400000D01*
X216090000Y-91480000D02*
X216090000Y-92983000D01*
X216130000Y-87904000D02*
X216130000Y-89400000D01*
X216130000Y-91480000D02*
X216130000Y-92976000D01*
X216170000Y-87912000D02*
X216170000Y-89400000D01*
X216170000Y-91480000D02*
X216170000Y-92968000D01*
X216210000Y-87920000D02*
X216210000Y-89400000D01*
X216210000Y-91480000D02*
X216210000Y-92960000D01*
X216250000Y-87929000D02*
X216250000Y-89400000D01*
X216250000Y-91480000D02*
X216250000Y-92951000D01*
X216290000Y-87939000D02*
X216290000Y-89400000D01*
X216290000Y-91480000D02*
X216290000Y-92941000D01*
X216330000Y-87949000D02*
X216330000Y-89400000D01*
X216330000Y-91480000D02*
X216330000Y-92931000D01*
X216371000Y-87960000D02*
X216371000Y-89400000D01*
X216371000Y-91480000D02*
X216371000Y-92920000D01*
X216411000Y-87972000D02*
X216411000Y-89400000D01*
X216411000Y-91480000D02*
X216411000Y-92908000D01*
X216451000Y-87985000D02*
X216451000Y-89400000D01*
X216451000Y-91480000D02*
X216451000Y-92895000D01*
X216491000Y-87998000D02*
X216491000Y-89400000D01*
X216491000Y-91480000D02*
X216491000Y-92882000D01*
X216531000Y-88012000D02*
X216531000Y-89400000D01*
X216531000Y-91480000D02*
X216531000Y-92868000D01*
X216571000Y-88026000D02*
X216571000Y-89400000D01*
X216571000Y-91480000D02*
X216571000Y-92854000D01*
X216611000Y-88042000D02*
X216611000Y-89400000D01*
X216611000Y-91480000D02*
X216611000Y-92838000D01*
X216651000Y-88058000D02*
X216651000Y-89400000D01*
X216651000Y-91480000D02*
X216651000Y-92822000D01*
X216691000Y-88075000D02*
X216691000Y-89400000D01*
X216691000Y-91480000D02*
X216691000Y-92805000D01*
X216731000Y-88092000D02*
X216731000Y-89400000D01*
X216731000Y-91480000D02*
X216731000Y-92788000D01*
X216771000Y-88111000D02*
X216771000Y-89400000D01*
X216771000Y-91480000D02*
X216771000Y-92769000D01*
X216811000Y-88130000D02*
X216811000Y-89400000D01*
X216811000Y-91480000D02*
X216811000Y-92750000D01*
X216851000Y-88150000D02*
X216851000Y-89400000D01*
X216851000Y-91480000D02*
X216851000Y-92730000D01*
X216891000Y-88172000D02*
X216891000Y-89400000D01*
X216891000Y-91480000D02*
X216891000Y-92708000D01*
X216931000Y-88193000D02*
X216931000Y-89400000D01*
X216931000Y-91480000D02*
X216931000Y-92687000D01*
X216971000Y-88216000D02*
X216971000Y-89400000D01*
X216971000Y-91480000D02*
X216971000Y-92664000D01*
X217011000Y-88240000D02*
X217011000Y-89400000D01*
X217011000Y-91480000D02*
X217011000Y-92640000D01*
X217051000Y-88265000D02*
X217051000Y-89400000D01*
X217051000Y-91480000D02*
X217051000Y-92615000D01*
X217091000Y-88291000D02*
X217091000Y-89400000D01*
X217091000Y-91480000D02*
X217091000Y-92589000D01*
X217131000Y-88318000D02*
X217131000Y-89400000D01*
X217131000Y-91480000D02*
X217131000Y-92562000D01*
X217171000Y-88345000D02*
X217171000Y-89400000D01*
X217171000Y-91480000D02*
X217171000Y-92535000D01*
X217211000Y-88375000D02*
X217211000Y-89400000D01*
X217211000Y-91480000D02*
X217211000Y-92505000D01*
X217251000Y-88405000D02*
X217251000Y-89400000D01*
X217251000Y-91480000D02*
X217251000Y-92475000D01*
X217291000Y-88436000D02*
X217291000Y-89400000D01*
X217291000Y-91480000D02*
X217291000Y-92444000D01*
X217331000Y-88469000D02*
X217331000Y-89400000D01*
X217331000Y-91480000D02*
X217331000Y-92411000D01*
X217371000Y-88503000D02*
X217371000Y-89400000D01*
X217371000Y-91480000D02*
X217371000Y-92377000D01*
X217411000Y-88539000D02*
X217411000Y-89400000D01*
X217411000Y-91480000D02*
X217411000Y-92341000D01*
X217451000Y-88576000D02*
X217451000Y-89400000D01*
X217451000Y-91480000D02*
X217451000Y-92304000D01*
X217491000Y-88614000D02*
X217491000Y-89400000D01*
X217491000Y-91480000D02*
X217491000Y-92266000D01*
X217531000Y-88655000D02*
X217531000Y-89400000D01*
X217531000Y-91480000D02*
X217531000Y-92225000D01*
X217571000Y-88697000D02*
X217571000Y-89400000D01*
X217571000Y-91480000D02*
X217571000Y-92183000D01*
X217611000Y-88741000D02*
X217611000Y-89400000D01*
X217611000Y-91480000D02*
X217611000Y-92139000D01*
X217651000Y-88787000D02*
X217651000Y-89400000D01*
X217651000Y-91480000D02*
X217651000Y-92093000D01*
X217691000Y-88835000D02*
X217691000Y-89400000D01*
X217691000Y-91480000D02*
X217691000Y-92045000D01*
X217731000Y-88886000D02*
X217731000Y-89400000D01*
X217731000Y-91480000D02*
X217731000Y-91994000D01*
X217771000Y-88940000D02*
X217771000Y-89400000D01*
X217771000Y-91480000D02*
X217771000Y-91940000D01*
X217811000Y-88997000D02*
X217811000Y-89400000D01*
X217811000Y-91480000D02*
X217811000Y-91883000D01*
X217851000Y-89057000D02*
X217851000Y-89400000D01*
X217851000Y-91480000D02*
X217851000Y-91823000D01*
X217891000Y-89121000D02*
X217891000Y-89400000D01*
X217891000Y-91480000D02*
X217891000Y-91759000D01*
X217931000Y-89189000D02*
X217931000Y-89400000D01*
X217931000Y-91480000D02*
X217931000Y-91691000D01*
X217971000Y-89262000D02*
X217971000Y-91618000D01*
X218011000Y-89342000D02*
X218011000Y-91538000D01*
X218051000Y-89429000D02*
X218051000Y-91451000D01*
X218091000Y-89525000D02*
X218091000Y-91355000D01*
X218131000Y-89635000D02*
X218131000Y-91245000D01*
X218171000Y-89763000D02*
X218171000Y-91117000D01*
X218211000Y-89922000D02*
X218211000Y-90958000D01*
X218251000Y-90156000D02*
X218251000Y-90724000D01*
X218270000Y-90440000D02*
G75*
G03*
X218270000Y-90440000I-2620000J0D01*
G01*
%TO.C,C2*%
X211610199Y-104485000D02*
X212010199Y-104485000D01*
X211810199Y-104285000D02*
X211810199Y-104685000D01*
X213880000Y-103600000D02*
X213880000Y-104840000D01*
X213880000Y-106520000D02*
X213880000Y-107760000D01*
X213920000Y-103600000D02*
X213920000Y-104840000D01*
X213920000Y-106520000D02*
X213920000Y-107760000D01*
X213960000Y-103601000D02*
X213960000Y-104840000D01*
X213960000Y-106520000D02*
X213960000Y-107759000D01*
X214000000Y-103603000D02*
X214000000Y-104840000D01*
X214000000Y-106520000D02*
X214000000Y-107757000D01*
X214040000Y-103606000D02*
X214040000Y-104840000D01*
X214040000Y-106520000D02*
X214040000Y-107754000D01*
X214080000Y-103609000D02*
X214080000Y-104840000D01*
X214080000Y-106520000D02*
X214080000Y-107751000D01*
X214120000Y-103613000D02*
X214120000Y-104840000D01*
X214120000Y-106520000D02*
X214120000Y-107747000D01*
X214160000Y-103618000D02*
X214160000Y-104840000D01*
X214160000Y-106520000D02*
X214160000Y-107742000D01*
X214200000Y-103624000D02*
X214200000Y-104840000D01*
X214200000Y-106520000D02*
X214200000Y-107736000D01*
X214240000Y-103630000D02*
X214240000Y-104840000D01*
X214240000Y-106520000D02*
X214240000Y-107730000D01*
X214280000Y-103638000D02*
X214280000Y-104840000D01*
X214280000Y-106520000D02*
X214280000Y-107722000D01*
X214320000Y-103646000D02*
X214320000Y-104840000D01*
X214320000Y-106520000D02*
X214320000Y-107714000D01*
X214360000Y-103655000D02*
X214360000Y-104840000D01*
X214360000Y-106520000D02*
X214360000Y-107705000D01*
X214400000Y-103664000D02*
X214400000Y-104840000D01*
X214400000Y-106520000D02*
X214400000Y-107696000D01*
X214440000Y-103675000D02*
X214440000Y-104840000D01*
X214440000Y-106520000D02*
X214440000Y-107685000D01*
X214480000Y-103686000D02*
X214480000Y-104840000D01*
X214480000Y-106520000D02*
X214480000Y-107674000D01*
X214520000Y-103698000D02*
X214520000Y-104840000D01*
X214520000Y-106520000D02*
X214520000Y-107662000D01*
X214560000Y-103712000D02*
X214560000Y-104840000D01*
X214560000Y-106520000D02*
X214560000Y-107648000D01*
X214601000Y-103726000D02*
X214601000Y-104840000D01*
X214601000Y-106520000D02*
X214601000Y-107634000D01*
X214641000Y-103740000D02*
X214641000Y-104840000D01*
X214641000Y-106520000D02*
X214641000Y-107620000D01*
X214681000Y-103756000D02*
X214681000Y-104840000D01*
X214681000Y-106520000D02*
X214681000Y-107604000D01*
X214721000Y-103773000D02*
X214721000Y-104840000D01*
X214721000Y-106520000D02*
X214721000Y-107587000D01*
X214761000Y-103791000D02*
X214761000Y-104840000D01*
X214761000Y-106520000D02*
X214761000Y-107569000D01*
X214801000Y-103810000D02*
X214801000Y-104840000D01*
X214801000Y-106520000D02*
X214801000Y-107550000D01*
X214841000Y-103829000D02*
X214841000Y-104840000D01*
X214841000Y-106520000D02*
X214841000Y-107531000D01*
X214881000Y-103850000D02*
X214881000Y-104840000D01*
X214881000Y-106520000D02*
X214881000Y-107510000D01*
X214921000Y-103872000D02*
X214921000Y-104840000D01*
X214921000Y-106520000D02*
X214921000Y-107488000D01*
X214961000Y-103895000D02*
X214961000Y-104840000D01*
X214961000Y-106520000D02*
X214961000Y-107465000D01*
X215001000Y-103920000D02*
X215001000Y-104840000D01*
X215001000Y-106520000D02*
X215001000Y-107440000D01*
X215041000Y-103945000D02*
X215041000Y-104840000D01*
X215041000Y-106520000D02*
X215041000Y-107415000D01*
X215081000Y-103972000D02*
X215081000Y-104840000D01*
X215081000Y-106520000D02*
X215081000Y-107388000D01*
X215121000Y-104000000D02*
X215121000Y-104840000D01*
X215121000Y-106520000D02*
X215121000Y-107360000D01*
X215161000Y-104030000D02*
X215161000Y-104840000D01*
X215161000Y-106520000D02*
X215161000Y-107330000D01*
X215201000Y-104061000D02*
X215201000Y-104840000D01*
X215201000Y-106520000D02*
X215201000Y-107299000D01*
X215241000Y-104093000D02*
X215241000Y-104840000D01*
X215241000Y-106520000D02*
X215241000Y-107267000D01*
X215281000Y-104128000D02*
X215281000Y-104840000D01*
X215281000Y-106520000D02*
X215281000Y-107232000D01*
X215321000Y-104164000D02*
X215321000Y-104840000D01*
X215321000Y-106520000D02*
X215321000Y-107196000D01*
X215361000Y-104202000D02*
X215361000Y-104840000D01*
X215361000Y-106520000D02*
X215361000Y-107158000D01*
X215401000Y-104242000D02*
X215401000Y-104840000D01*
X215401000Y-106520000D02*
X215401000Y-107118000D01*
X215441000Y-104284000D02*
X215441000Y-104840000D01*
X215441000Y-106520000D02*
X215441000Y-107076000D01*
X215481000Y-104329000D02*
X215481000Y-107031000D01*
X215521000Y-104376000D02*
X215521000Y-106984000D01*
X215561000Y-104426000D02*
X215561000Y-106934000D01*
X215601000Y-104480000D02*
X215601000Y-106880000D01*
X215641000Y-104538000D02*
X215641000Y-106822000D01*
X215681000Y-104600000D02*
X215681000Y-106760000D01*
X215721000Y-104667000D02*
X215721000Y-106693000D01*
X215761000Y-104740000D02*
X215761000Y-106620000D01*
X215801000Y-104821000D02*
X215801000Y-106539000D01*
X215841000Y-104912000D02*
X215841000Y-106448000D01*
X215881000Y-105016000D02*
X215881000Y-106344000D01*
X215921000Y-105143000D02*
X215921000Y-106217000D01*
X215961000Y-105310000D02*
X215961000Y-106050000D01*
X216000000Y-105680000D02*
G75*
G03*
X216000000Y-105680000I-2120000J0D01*
G01*
%TO.C,C5*%
X211299801Y-83745000D02*
X210899801Y-83745000D01*
X211099801Y-83945000D02*
X211099801Y-83545000D01*
X209030000Y-84630000D02*
X209030000Y-83390000D01*
X209030000Y-81710000D02*
X209030000Y-80470000D01*
X208990000Y-84630000D02*
X208990000Y-83390000D01*
X208990000Y-81710000D02*
X208990000Y-80470000D01*
X208950000Y-84629000D02*
X208950000Y-83390000D01*
X208950000Y-81710000D02*
X208950000Y-80471000D01*
X208910000Y-84627000D02*
X208910000Y-83390000D01*
X208910000Y-81710000D02*
X208910000Y-80473000D01*
X208870000Y-84624000D02*
X208870000Y-83390000D01*
X208870000Y-81710000D02*
X208870000Y-80476000D01*
X208830000Y-84621000D02*
X208830000Y-83390000D01*
X208830000Y-81710000D02*
X208830000Y-80479000D01*
X208790000Y-84617000D02*
X208790000Y-83390000D01*
X208790000Y-81710000D02*
X208790000Y-80483000D01*
X208750000Y-84612000D02*
X208750000Y-83390000D01*
X208750000Y-81710000D02*
X208750000Y-80488000D01*
X208710000Y-84606000D02*
X208710000Y-83390000D01*
X208710000Y-81710000D02*
X208710000Y-80494000D01*
X208670000Y-84600000D02*
X208670000Y-83390000D01*
X208670000Y-81710000D02*
X208670000Y-80500000D01*
X208630000Y-84592000D02*
X208630000Y-83390000D01*
X208630000Y-81710000D02*
X208630000Y-80508000D01*
X208590000Y-84584000D02*
X208590000Y-83390000D01*
X208590000Y-81710000D02*
X208590000Y-80516000D01*
X208550000Y-84575000D02*
X208550000Y-83390000D01*
X208550000Y-81710000D02*
X208550000Y-80525000D01*
X208510000Y-84566000D02*
X208510000Y-83390000D01*
X208510000Y-81710000D02*
X208510000Y-80534000D01*
X208470000Y-84555000D02*
X208470000Y-83390000D01*
X208470000Y-81710000D02*
X208470000Y-80545000D01*
X208430000Y-84544000D02*
X208430000Y-83390000D01*
X208430000Y-81710000D02*
X208430000Y-80556000D01*
X208390000Y-84532000D02*
X208390000Y-83390000D01*
X208390000Y-81710000D02*
X208390000Y-80568000D01*
X208350000Y-84518000D02*
X208350000Y-83390000D01*
X208350000Y-81710000D02*
X208350000Y-80582000D01*
X208309000Y-84504000D02*
X208309000Y-83390000D01*
X208309000Y-81710000D02*
X208309000Y-80596000D01*
X208269000Y-84490000D02*
X208269000Y-83390000D01*
X208269000Y-81710000D02*
X208269000Y-80610000D01*
X208229000Y-84474000D02*
X208229000Y-83390000D01*
X208229000Y-81710000D02*
X208229000Y-80626000D01*
X208189000Y-84457000D02*
X208189000Y-83390000D01*
X208189000Y-81710000D02*
X208189000Y-80643000D01*
X208149000Y-84439000D02*
X208149000Y-83390000D01*
X208149000Y-81710000D02*
X208149000Y-80661000D01*
X208109000Y-84420000D02*
X208109000Y-83390000D01*
X208109000Y-81710000D02*
X208109000Y-80680000D01*
X208069000Y-84401000D02*
X208069000Y-83390000D01*
X208069000Y-81710000D02*
X208069000Y-80699000D01*
X208029000Y-84380000D02*
X208029000Y-83390000D01*
X208029000Y-81710000D02*
X208029000Y-80720000D01*
X207989000Y-84358000D02*
X207989000Y-83390000D01*
X207989000Y-81710000D02*
X207989000Y-80742000D01*
X207949000Y-84335000D02*
X207949000Y-83390000D01*
X207949000Y-81710000D02*
X207949000Y-80765000D01*
X207909000Y-84310000D02*
X207909000Y-83390000D01*
X207909000Y-81710000D02*
X207909000Y-80790000D01*
X207869000Y-84285000D02*
X207869000Y-83390000D01*
X207869000Y-81710000D02*
X207869000Y-80815000D01*
X207829000Y-84258000D02*
X207829000Y-83390000D01*
X207829000Y-81710000D02*
X207829000Y-80842000D01*
X207789000Y-84230000D02*
X207789000Y-83390000D01*
X207789000Y-81710000D02*
X207789000Y-80870000D01*
X207749000Y-84200000D02*
X207749000Y-83390000D01*
X207749000Y-81710000D02*
X207749000Y-80900000D01*
X207709000Y-84169000D02*
X207709000Y-83390000D01*
X207709000Y-81710000D02*
X207709000Y-80931000D01*
X207669000Y-84137000D02*
X207669000Y-83390000D01*
X207669000Y-81710000D02*
X207669000Y-80963000D01*
X207629000Y-84102000D02*
X207629000Y-83390000D01*
X207629000Y-81710000D02*
X207629000Y-80998000D01*
X207589000Y-84066000D02*
X207589000Y-83390000D01*
X207589000Y-81710000D02*
X207589000Y-81034000D01*
X207549000Y-84028000D02*
X207549000Y-83390000D01*
X207549000Y-81710000D02*
X207549000Y-81072000D01*
X207509000Y-83988000D02*
X207509000Y-83390000D01*
X207509000Y-81710000D02*
X207509000Y-81112000D01*
X207469000Y-83946000D02*
X207469000Y-83390000D01*
X207469000Y-81710000D02*
X207469000Y-81154000D01*
X207429000Y-83901000D02*
X207429000Y-81199000D01*
X207389000Y-83854000D02*
X207389000Y-81246000D01*
X207349000Y-83804000D02*
X207349000Y-81296000D01*
X207309000Y-83750000D02*
X207309000Y-81350000D01*
X207269000Y-83692000D02*
X207269000Y-81408000D01*
X207229000Y-83630000D02*
X207229000Y-81470000D01*
X207189000Y-83563000D02*
X207189000Y-81537000D01*
X207149000Y-83490000D02*
X207149000Y-81610000D01*
X207109000Y-83409000D02*
X207109000Y-81691000D01*
X207069000Y-83318000D02*
X207069000Y-81782000D01*
X207029000Y-83214000D02*
X207029000Y-81886000D01*
X206989000Y-83087000D02*
X206989000Y-82013000D01*
X206949000Y-82920000D02*
X206949000Y-82180000D01*
X211150000Y-82550000D02*
G75*
G03*
X211150000Y-82550000I-2120000J0D01*
G01*
%TO.C,J3*%
X224095000Y-102455000D02*
X224790000Y-102455000D01*
X224095000Y-103140000D02*
X224095000Y-102455000D01*
X224095000Y-103825000D02*
X224095000Y-104700000D01*
X224095000Y-103825000D02*
X224181724Y-103825000D01*
X224095000Y-104700000D02*
X224395507Y-104700000D01*
X225184493Y-104700000D02*
X225485000Y-104700000D01*
X225398276Y-103825000D02*
X225485000Y-103825000D01*
X225485000Y-103825000D02*
X225485000Y-104700000D01*
%TO.C,R3*%
X205390000Y-104760000D02*
X205390000Y-108600000D01*
X203550000Y-104760000D02*
X203550000Y-108600000D01*
%TO.C,R5*%
X213710000Y-101250000D02*
X213710000Y-97410000D01*
X215550000Y-101250000D02*
X215550000Y-97410000D01*
%TO.C,Q1*%
X202670000Y-114880000D02*
X206270000Y-114880000D01*
X204470000Y-110430000D02*
G75*
G03*
X202631522Y-114868478I0J-2600000D01*
G01*
X206308478Y-114868478D02*
G75*
G03*
X204470000Y-110430000I-1838478J1838478D01*
G01*
%TO.C,R1*%
X216820000Y-112380000D02*
X216820000Y-116220000D01*
X214980000Y-112380000D02*
X214980000Y-116220000D01*
%TO.C,C6*%
X210470000Y-97411000D02*
X210470000Y-98669000D01*
X208630000Y-97411000D02*
X208630000Y-98669000D01*
%TO.C,J7*%
X213945000Y-22285000D02*
X213945000Y-21590000D01*
X214630000Y-22285000D02*
X213945000Y-22285000D01*
X215315000Y-22285000D02*
X218190000Y-22285000D01*
X215315000Y-22285000D02*
X215315000Y-22198276D01*
X218190000Y-22285000D02*
X218190000Y-21984493D01*
X218190000Y-21195507D02*
X218190000Y-20895000D01*
X215315000Y-20981724D02*
X215315000Y-20895000D01*
X215315000Y-20895000D02*
X218190000Y-20895000D01*
%TO.C,Q2*%
X217910000Y-108530000D02*
X221510000Y-108530000D01*
X219710000Y-104080000D02*
G75*
G03*
X217871522Y-108518478I0J-2600000D01*
G01*
X221548478Y-108518478D02*
G75*
G03*
X219710000Y-104080000I-1838478J1838478D01*
G01*
%TO.C,C4*%
X207295000Y-97181000D02*
X207295000Y-98439000D01*
X205455000Y-97181000D02*
X205455000Y-98439000D01*
%TO.C,J5*%
X226635000Y-85945000D02*
X227330000Y-85945000D01*
X226635000Y-86630000D02*
X226635000Y-85945000D01*
X226635000Y-87315000D02*
X226635000Y-88190000D01*
X226635000Y-87315000D02*
X226721724Y-87315000D01*
X226635000Y-88190000D02*
X226935507Y-88190000D01*
X227724493Y-88190000D02*
X228025000Y-88190000D01*
X227938276Y-87315000D02*
X228025000Y-87315000D01*
X228025000Y-87315000D02*
X228025000Y-88190000D01*
%TO.C,R4*%
X220630000Y-97140000D02*
X220630000Y-100980000D01*
X218790000Y-97140000D02*
X218790000Y-100980000D01*
%TO.C,R2*%
X221900000Y-112380000D02*
X221900000Y-116220000D01*
X220060000Y-112380000D02*
X220060000Y-116220000D01*
%TO.C,U3*%
X202319000Y-85820000D02*
X202319000Y-90461000D01*
X202319000Y-85820000D02*
X212560000Y-85820000D01*
X202319000Y-87329000D02*
X212560000Y-87329000D01*
X202319000Y-90461000D02*
X204675000Y-90461000D01*
X204040000Y-90461000D02*
X204040000Y-93091000D01*
X205590000Y-85820000D02*
X205590000Y-87329000D01*
X206805000Y-90461000D02*
X208075000Y-90461000D01*
X207440000Y-90461000D02*
X207440000Y-93075000D01*
X209290000Y-85820000D02*
X209290000Y-87329000D01*
X210205000Y-90461000D02*
X212560000Y-90461000D01*
X210840000Y-90461000D02*
X210840000Y-93075000D01*
X212560000Y-85820000D02*
X212560000Y-90461000D01*
D12*
%TO.C,U1*%
X200915000Y-23940000D02*
X228815000Y-23940000D01*
X200915000Y-78340000D02*
X200915000Y-23940000D01*
X228815000Y-23940000D02*
X228815000Y-78340000D01*
X228815000Y-78340000D02*
X200915000Y-78340000D01*
D13*
X200365000Y-31330000D02*
G75*
G03*
X200365000Y-31330000I-100000J0D01*
G01*
%TD*%
M02*
