M48
; DRILL file {KiCad 7.0.7-7.0.7~ubuntu22.04.1} date Mon 04 Sep 2023 11:07:31 CEST
; FORMAT={-:-/ absolute / inch / decimal}
; #@! TF.CreationDate,2023-09-04T11:07:31+02:00
; #@! TF.GenerationSoftware,Kicad,Pcbnew,7.0.7-7.0.7~ubuntu22.04.1
; #@! TF.FileFunction,Plated,1,2,PTH
FMAT,2
INCH
; #@! TA.AperFunction,Plated,PTH,ComponentDrill
T1C0.0197
; #@! TA.AperFunction,Plated,PTH,ComponentDrill
T2C0.0236
; #@! TA.AperFunction,Plated,PTH,ComponentDrill
T3C0.0276
; #@! TA.AperFunction,Plated,PTH,ComponentDrill
T4C0.0295
; #@! TA.AperFunction,Plated,PTH,ComponentDrill
T5C0.0315
; #@! TA.AperFunction,Plated,PTH,ComponentDrill
T6C0.0354
; #@! TA.AperFunction,Plated,PTH,ComponentDrill
T7C0.0409
; #@! TA.AperFunction,Plated,PTH,ComponentDrill
T8C0.0433
%
G90
G05
T1
X8.45Y-0.85
X8.4894Y-0.85
X8.5287Y-0.85
X8.5681Y-0.85
X8.7106Y-3.5606
X8.75Y-3.5606
X8.85Y-3.8606
X8.85Y-3.9
X8.85Y-4.0606
X8.85Y-4.1
X8.95Y-3.4106
X8.95Y-3.45
X8.95Y-3.6106
X8.95Y-3.65
X8.95Y-3.6894
T2
X7.9409Y-3.9106
X8.0Y-3.9106
X8.2Y-3.25
X8.2591Y-3.25
X8.3909Y-4.1606
X8.45Y-4.1606
T3
X8.05Y-4.1
X8.05Y-4.3
X8.25Y-4.3106
X8.35Y-3.8106
X8.35Y-4.0106
X8.45Y-3.8106
X8.45Y-4.0106
X8.45Y-4.3106
X8.5Y-4.4
X8.5Y-4.6
X8.65Y-3.8
X8.65Y-4.0
X8.7Y-4.4
X8.7Y-4.6
T4
X8.0Y-4.45
X8.05Y-4.45
X8.1Y-4.45
X8.6Y-4.2
X8.65Y-4.2
X8.7Y-4.2
T5
X8.125Y-3.8016
X8.125Y-3.9
X8.25Y-3.8106
X8.25Y-3.9091
X8.4409Y-3.5606
X8.5394Y-3.5606
T6
X8.0Y-4.75
X8.1Y-4.75
X8.6Y-4.75
X8.7Y-4.75
X8.8Y-4.4
X8.9Y-4.4
X9.0Y-4.4
T7
X7.9593Y-1.2335
X7.9593Y-1.3335
X7.9593Y-1.4335
X7.9593Y-1.5335
X7.9593Y-1.6335
X7.9593Y-1.7335
X7.9593Y-1.8335
X7.9593Y-1.9335
X7.9593Y-2.0335
X7.9593Y-2.1335
X7.9593Y-2.2335
X7.9593Y-2.3335
X7.9593Y-2.4335
X7.9593Y-2.5335
X7.9593Y-2.6335
X7.9593Y-2.7335
X7.9593Y-2.8335
X7.9593Y-2.9335
X7.9593Y-3.0335
X8.9593Y-1.2335
X8.9593Y-1.3335
X8.9593Y-1.4335
X8.9593Y-1.5335
X8.9593Y-1.6335
X8.9593Y-1.7335
X8.9593Y-1.8335
X8.9593Y-1.9335
X8.9593Y-2.0335
X8.9593Y-2.1335
X8.9593Y-2.2335
X8.9593Y-2.3335
X8.9593Y-2.4335
X8.9593Y-2.5335
X8.9593Y-2.6335
X8.9593Y-2.7335
X8.9593Y-2.8335
X8.9593Y-2.9335
X8.9593Y-3.0335
T8
X8.0331Y-3.7063
X8.1Y-3.5606
X8.1669Y-3.7063
X8.2339Y-3.5606
X8.3008Y-3.7063
T0
M30
