%TF.GenerationSoftware,KiCad,Pcbnew,7.0.7-7.0.7~ubuntu22.04.1*%
%TF.CreationDate,2023-09-04T11:07:22+02:00*%
%TF.ProjectId,schaltung,73636861-6c74-4756-9e67-2e6b69636164,rev?*%
%TF.SameCoordinates,Original*%
%TF.FileFunction,Soldermask,Bot*%
%TF.FilePolarity,Negative*%
%FSLAX46Y46*%
G04 Gerber Fmt 4.6, Leading zero omitted, Abs format (unit mm)*
G04 Created by KiCad (PCBNEW 7.0.7-7.0.7~ubuntu22.04.1) date 2023-09-04 11:07:22*
%MOMM*%
%LPD*%
G01*
G04 APERTURE LIST*
G04 Aperture macros list*
%AMRoundRect*
0 Rectangle with rounded corners*
0 $1 Rounding radius*
0 $2 $3 $4 $5 $6 $7 $8 $9 X,Y pos of 4 corners*
0 Add a 4 corners polygon primitive as box body*
4,1,4,$2,$3,$4,$5,$6,$7,$8,$9,$2,$3,0*
0 Add four circle primitives for the rounded corners*
1,1,$1+$1,$2,$3*
1,1,$1+$1,$4,$5*
1,1,$1+$1,$6,$7*
1,1,$1+$1,$8,$9*
0 Add four rect primitives between the rounded corners*
20,1,$1+$1,$2,$3,$4,$5,0*
20,1,$1+$1,$4,$5,$6,$7,0*
20,1,$1+$1,$6,$7,$8,$9,0*
20,1,$1+$1,$8,$9,$2,$3,0*%
G04 Aperture macros list end*
%ADD10C,1.400000*%
%ADD11O,1.400000X1.400000*%
%ADD12R,0.850000X0.850000*%
%ADD13O,0.850000X0.850000*%
%ADD14R,1.800000X1.800000*%
%ADD15C,1.800000*%
%ADD16R,1.200000X1.200000*%
%ADD17C,1.200000*%
%ADD18RoundRect,0.248400X-0.651600X-0.651600X0.651600X-0.651600X0.651600X0.651600X-0.651600X0.651600X0*%
%ADD19R,1.600000X1.600000*%
%ADD20C,1.600000*%
%ADD21R,1.050000X1.500000*%
%ADD22O,1.050000X1.500000*%
%ADD23O,1.800000X1.800000*%
%ADD24R,1.560000X1.560000*%
%ADD25C,1.560000*%
G04 APERTURE END LIST*
D10*
%TO.C,R6*%
X209550000Y-109490000D03*
D11*
X214630000Y-109490000D03*
%TD*%
D10*
%TO.C,R7*%
X212090000Y-101870000D03*
D11*
X212090000Y-96790000D03*
%TD*%
D12*
%TO.C,J4*%
X224790000Y-98060000D03*
D13*
X224790000Y-99060000D03*
%TD*%
D14*
%TO.C,D2_Red1*%
X203200000Y-120650000D03*
D15*
X205740000Y-120650000D03*
%TD*%
D16*
%TO.C,C1*%
X201700000Y-99330000D03*
D17*
X203200000Y-99330000D03*
%TD*%
D18*
%TO.C,U2*%
X223520000Y-111760000D03*
D15*
X226060000Y-111760000D03*
X228600000Y-111760000D03*
%TD*%
D12*
%TO.C,J2*%
X227330000Y-91710000D03*
D13*
X227330000Y-92710000D03*
X227330000Y-93710000D03*
%TD*%
D14*
%TO.C,D1_IR1*%
X218440000Y-120650000D03*
D15*
X220980000Y-120650000D03*
%TD*%
D12*
%TO.C,J1*%
X222250000Y-90440000D03*
D13*
X221250000Y-90440000D03*
%TD*%
D19*
%TO.C,C3*%
X214400000Y-90440000D03*
D20*
X216900000Y-90440000D03*
%TD*%
D16*
%TO.C,C2*%
X213130000Y-105680000D03*
D17*
X214630000Y-105680000D03*
%TD*%
D16*
%TO.C,C5*%
X209780000Y-82550000D03*
D17*
X208280000Y-82550000D03*
%TD*%
D12*
%TO.C,J3*%
X224790000Y-103140000D03*
D13*
X224790000Y-104140000D03*
%TD*%
D10*
%TO.C,R3*%
X204470000Y-104140000D03*
D11*
X204470000Y-109220000D03*
%TD*%
D10*
%TO.C,R5*%
X214630000Y-101870000D03*
D11*
X214630000Y-96790000D03*
%TD*%
D21*
%TO.C,Q1*%
X203200000Y-113030000D03*
D22*
X204470000Y-113030000D03*
X205740000Y-113030000D03*
%TD*%
D10*
%TO.C,R1*%
X215900000Y-111760000D03*
D11*
X215900000Y-116840000D03*
%TD*%
D20*
%TO.C,C6*%
X209550000Y-96790000D03*
X209550000Y-99290000D03*
%TD*%
D12*
%TO.C,J7*%
X214630000Y-21590000D03*
D13*
X215630000Y-21590000D03*
X216630000Y-21590000D03*
X217630000Y-21590000D03*
%TD*%
D21*
%TO.C,Q2*%
X218440000Y-106680000D03*
D22*
X219710000Y-106680000D03*
X220980000Y-106680000D03*
%TD*%
D20*
%TO.C,C4*%
X206375000Y-96560000D03*
X206375000Y-99060000D03*
%TD*%
D12*
%TO.C,J5*%
X227330000Y-86630000D03*
D13*
X227330000Y-87630000D03*
%TD*%
D10*
%TO.C,R4*%
X219710000Y-96520000D03*
D11*
X219710000Y-101600000D03*
%TD*%
D10*
%TO.C,R2*%
X220980000Y-111760000D03*
D11*
X220980000Y-116840000D03*
%TD*%
D14*
%TO.C,U3*%
X204040000Y-94140000D03*
D23*
X205740000Y-90440000D03*
X207440000Y-94140000D03*
X209140000Y-90440000D03*
X210840000Y-94140000D03*
%TD*%
D24*
%TO.C,U1*%
X202165000Y-31330000D03*
D25*
X202165000Y-33870000D03*
X202165000Y-36410000D03*
X202165000Y-38950000D03*
X202165000Y-41490000D03*
X202165000Y-44030000D03*
X202165000Y-46570000D03*
X202165000Y-49110000D03*
X202165000Y-51650000D03*
X202165000Y-54190000D03*
X202165000Y-56730000D03*
X202165000Y-59270000D03*
X202165000Y-61810000D03*
X202165000Y-64350000D03*
X202165000Y-66890000D03*
X202165000Y-69430000D03*
X202165000Y-71970000D03*
X202165000Y-74510000D03*
X202165000Y-77050000D03*
X227565000Y-31330000D03*
X227565000Y-33870000D03*
X227565000Y-36410000D03*
X227565000Y-38950000D03*
X227565000Y-41490000D03*
X227565000Y-44030000D03*
X227565000Y-46570000D03*
X227565000Y-49110000D03*
X227565000Y-51650000D03*
X227565000Y-54190000D03*
X227565000Y-56730000D03*
X227565000Y-59270000D03*
X227565000Y-61810000D03*
X227565000Y-64350000D03*
X227565000Y-66890000D03*
X227565000Y-69430000D03*
X227565000Y-71970000D03*
X227565000Y-74510000D03*
X227565000Y-77050000D03*
%TD*%
M02*
