%TF.GenerationSoftware,KiCad,Pcbnew,7.0.7-7.0.7~ubuntu22.04.1*%
%TF.CreationDate,2023-09-04T11:07:22+02:00*%
%TF.ProjectId,schaltung,73636861-6c74-4756-9e67-2e6b69636164,rev?*%
%TF.SameCoordinates,Original*%
%TF.FileFunction,Copper,L2,Bot*%
%TF.FilePolarity,Positive*%
%FSLAX46Y46*%
G04 Gerber Fmt 4.6, Leading zero omitted, Abs format (unit mm)*
G04 Created by KiCad (PCBNEW 7.0.7-7.0.7~ubuntu22.04.1) date 2023-09-04 11:07:22*
%MOMM*%
%LPD*%
G01*
G04 APERTURE LIST*
G04 Aperture macros list*
%AMRoundRect*
0 Rectangle with rounded corners*
0 $1 Rounding radius*
0 $2 $3 $4 $5 $6 $7 $8 $9 X,Y pos of 4 corners*
0 Add a 4 corners polygon primitive as box body*
4,1,4,$2,$3,$4,$5,$6,$7,$8,$9,$2,$3,0*
0 Add four circle primitives for the rounded corners*
1,1,$1+$1,$2,$3*
1,1,$1+$1,$4,$5*
1,1,$1+$1,$6,$7*
1,1,$1+$1,$8,$9*
0 Add four rect primitives between the rounded corners*
20,1,$1+$1,$2,$3,$4,$5,0*
20,1,$1+$1,$4,$5,$6,$7,0*
20,1,$1+$1,$6,$7,$8,$9,0*
20,1,$1+$1,$8,$9,$2,$3,0*%
G04 Aperture macros list end*
%TA.AperFunction,ComponentPad*%
%ADD10C,1.400000*%
%TD*%
%TA.AperFunction,ComponentPad*%
%ADD11O,1.400000X1.400000*%
%TD*%
%TA.AperFunction,ComponentPad*%
%ADD12R,0.850000X0.850000*%
%TD*%
%TA.AperFunction,ComponentPad*%
%ADD13O,0.850000X0.850000*%
%TD*%
%TA.AperFunction,ComponentPad*%
%ADD14R,1.800000X1.800000*%
%TD*%
%TA.AperFunction,ComponentPad*%
%ADD15C,1.800000*%
%TD*%
%TA.AperFunction,ComponentPad*%
%ADD16R,1.200000X1.200000*%
%TD*%
%TA.AperFunction,ComponentPad*%
%ADD17C,1.200000*%
%TD*%
%TA.AperFunction,ComponentPad*%
%ADD18RoundRect,0.248400X-0.651600X-0.651600X0.651600X-0.651600X0.651600X0.651600X-0.651600X0.651600X0*%
%TD*%
%TA.AperFunction,ComponentPad*%
%ADD19R,1.600000X1.600000*%
%TD*%
%TA.AperFunction,ComponentPad*%
%ADD20C,1.600000*%
%TD*%
%TA.AperFunction,ComponentPad*%
%ADD21R,1.050000X1.500000*%
%TD*%
%TA.AperFunction,ComponentPad*%
%ADD22O,1.050000X1.500000*%
%TD*%
%TA.AperFunction,ComponentPad*%
%ADD23O,1.800000X1.800000*%
%TD*%
%TA.AperFunction,ComponentPad*%
%ADD24R,1.560000X1.560000*%
%TD*%
%TA.AperFunction,ComponentPad*%
%ADD25C,1.560000*%
%TD*%
%TA.AperFunction,Conductor*%
%ADD26C,0.250000*%
%TD*%
G04 APERTURE END LIST*
D10*
%TO.P,R6,1*%
%TO.N,GND*%
X209550000Y-109490000D03*
D11*
%TO.P,R6,2*%
%TO.N,Net-(C2-Pad2)*%
X214630000Y-109490000D03*
%TD*%
D10*
%TO.P,R7,1*%
%TO.N,Net-(C6-Pad2)*%
X212090000Y-101870000D03*
D11*
%TO.P,R7,2*%
%TO.N,Net-(C3-Pad1)*%
X212090000Y-96790000D03*
%TD*%
D12*
%TO.P,J4,1,Pin_1*%
%TO.N,Net-(J4-Pin_1)*%
X224790000Y-98060000D03*
D13*
%TO.P,J4,2,Pin_2*%
%TO.N,GND*%
X224790000Y-99060000D03*
%TD*%
D14*
%TO.P,D2_Red1,1,K*%
%TO.N,Net-(D2_Red1-K)*%
X203200000Y-120650000D03*
D15*
%TO.P,D2_Red1,2,A*%
%TO.N,Net-(D2_Red1-A)*%
X205740000Y-120650000D03*
%TD*%
D16*
%TO.P,C1,1*%
%TO.N,Net-(U3-+)*%
X201700000Y-99330000D03*
D17*
%TO.P,C1,2*%
%TO.N,Net-(U1-IO25)*%
X203200000Y-99330000D03*
%TD*%
D18*
%TO.P,U2,1,OUT*%
%TO.N,Net-(U1-IO27)*%
X223520000Y-111760000D03*
D15*
%TO.P,U2,2,GND*%
%TO.N,GND*%
X226060000Y-111760000D03*
%TO.P,U2,3,Vs*%
%TO.N,+3.3V*%
X228600000Y-111760000D03*
%TD*%
D12*
%TO.P,J2,1,Pin_1*%
%TO.N,GND*%
X227330000Y-91710000D03*
D13*
%TO.P,J2,2,Pin_2*%
%TO.N,Net-(J2-Pin_2)*%
X227330000Y-92710000D03*
%TO.P,J2,3,Pin_3*%
%TO.N,+5V*%
X227330000Y-93710000D03*
%TD*%
D14*
%TO.P,D1_IR1,1,K*%
%TO.N,Net-(D1_IR1-K)*%
X218440000Y-120650000D03*
D15*
%TO.P,D1_IR1,2,A*%
%TO.N,Net-(D1_IR1-A)*%
X220980000Y-120650000D03*
%TD*%
D12*
%TO.P,J1,1,Pin_1*%
%TO.N,Net-(J1-Pin_1)*%
X222250000Y-90440000D03*
D13*
%TO.P,J1,2,Pin_2*%
%TO.N,GND*%
X221250000Y-90440000D03*
%TD*%
D19*
%TO.P,C3,1*%
%TO.N,Net-(C3-Pad1)*%
X214400000Y-90440000D03*
D20*
%TO.P,C3,2*%
%TO.N,Net-(J1-Pin_1)*%
X216900000Y-90440000D03*
%TD*%
D16*
%TO.P,C2,1*%
%TO.N,Net-(U3--)*%
X213130000Y-105680000D03*
D17*
%TO.P,C2,2*%
%TO.N,Net-(C2-Pad2)*%
X214630000Y-105680000D03*
%TD*%
D16*
%TO.P,C5,1*%
%TO.N,+5V*%
X209780000Y-82550000D03*
D17*
%TO.P,C5,2*%
%TO.N,GND*%
X208280000Y-82550000D03*
%TD*%
D12*
%TO.P,J3,1,Pin_1*%
%TO.N,Net-(J3-Pin_1)*%
X224790000Y-103140000D03*
D13*
%TO.P,J3,2,Pin_2*%
%TO.N,GND*%
X224790000Y-104140000D03*
%TD*%
D10*
%TO.P,R3,1*%
%TO.N,Net-(U1-IO16)*%
X204470000Y-104140000D03*
D11*
%TO.P,R3,2*%
%TO.N,Net-(Q1-B)*%
X204470000Y-109220000D03*
%TD*%
D10*
%TO.P,R5,1*%
%TO.N,Net-(C2-Pad2)*%
X214630000Y-101870000D03*
D11*
%TO.P,R5,2*%
%TO.N,Net-(C3-Pad1)*%
X214630000Y-96790000D03*
%TD*%
D21*
%TO.P,Q1,1,C*%
%TO.N,Net-(D2_Red1-K)*%
X203200000Y-113030000D03*
D22*
%TO.P,Q1,2,B*%
%TO.N,Net-(Q1-B)*%
X204470000Y-113030000D03*
%TO.P,Q1,3,E*%
%TO.N,GND*%
X205740000Y-113030000D03*
%TD*%
D10*
%TO.P,R1,1*%
%TO.N,+3.3V*%
X215900000Y-111760000D03*
D11*
%TO.P,R1,2*%
%TO.N,Net-(D2_Red1-A)*%
X215900000Y-116840000D03*
%TD*%
D20*
%TO.P,C6,1*%
%TO.N,GND*%
X209550000Y-96790000D03*
%TO.P,C6,2*%
%TO.N,Net-(C6-Pad2)*%
X209550000Y-99290000D03*
%TD*%
D12*
%TO.P,J7,1,Pin_1*%
%TO.N,Net-(J7-Pin_1)*%
X214630000Y-21590000D03*
D13*
%TO.P,J7,2,Pin_2*%
%TO.N,Net-(J7-Pin_2)*%
X215630000Y-21590000D03*
%TO.P,J7,3,Pin_3*%
%TO.N,GND*%
X216630000Y-21590000D03*
%TO.P,J7,4,Pin_4*%
%TO.N,+3.3V*%
X217630000Y-21590000D03*
%TD*%
D21*
%TO.P,Q2,1,C*%
%TO.N,Net-(D1_IR1-K)*%
X218440000Y-106680000D03*
D22*
%TO.P,Q2,2,B*%
%TO.N,Net-(Q2-B)*%
X219710000Y-106680000D03*
%TO.P,Q2,3,E*%
%TO.N,GND*%
X220980000Y-106680000D03*
%TD*%
D20*
%TO.P,C4,1*%
%TO.N,GND*%
X206375000Y-96560000D03*
%TO.P,C4,2*%
%TO.N,Net-(U1-IO25)*%
X206375000Y-99060000D03*
%TD*%
D12*
%TO.P,J5,1,Pin_1*%
%TO.N,+5V*%
X227330000Y-86630000D03*
D13*
%TO.P,J5,2,Pin_2*%
%TO.N,GND*%
X227330000Y-87630000D03*
%TD*%
D10*
%TO.P,R4,1*%
%TO.N,Net-(U1-IO13)*%
X219710000Y-96520000D03*
D11*
%TO.P,R4,2*%
%TO.N,Net-(Q2-B)*%
X219710000Y-101600000D03*
%TD*%
D10*
%TO.P,R2,1*%
%TO.N,+3.3V*%
X220980000Y-111760000D03*
D11*
%TO.P,R2,2*%
%TO.N,Net-(D1_IR1-A)*%
X220980000Y-116840000D03*
%TD*%
D14*
%TO.P,U3,1,+*%
%TO.N,Net-(U3-+)*%
X204040000Y-94140000D03*
D23*
%TO.P,U3,2,-*%
%TO.N,Net-(U3--)*%
X205740000Y-90440000D03*
%TO.P,U3,3,GND*%
%TO.N,GND*%
X207440000Y-94140000D03*
%TO.P,U3,4*%
%TO.N,Net-(C3-Pad1)*%
X209140000Y-90440000D03*
%TO.P,U3,5,V+*%
%TO.N,+5V*%
X210840000Y-94140000D03*
%TD*%
D24*
%TO.P,U1,J2-1,3V3*%
%TO.N,+3.3V*%
X202165000Y-31330000D03*
D25*
%TO.P,U1,J2-2,EN*%
%TO.N,unconnected-(U1-EN-PadJ2-2)*%
X202165000Y-33870000D03*
%TO.P,U1,J2-3,SENSOR_VP*%
%TO.N,unconnected-(U1-SENSOR_VP-PadJ2-3)*%
X202165000Y-36410000D03*
%TO.P,U1,J2-4,SENSOR_VN*%
%TO.N,unconnected-(U1-SENSOR_VN-PadJ2-4)*%
X202165000Y-38950000D03*
%TO.P,U1,J2-5,IO34*%
%TO.N,unconnected-(U1-IO34-PadJ2-5)*%
X202165000Y-41490000D03*
%TO.P,U1,J2-6,IO35*%
%TO.N,unconnected-(U1-IO35-PadJ2-6)*%
X202165000Y-44030000D03*
%TO.P,U1,J2-7,IO32*%
%TO.N,unconnected-(U1-IO32-PadJ2-7)*%
X202165000Y-46570000D03*
%TO.P,U1,J2-8,IO33*%
%TO.N,unconnected-(U1-IO33-PadJ2-8)*%
X202165000Y-49110000D03*
%TO.P,U1,J2-9,IO25*%
%TO.N,Net-(U1-IO25)*%
X202165000Y-51650000D03*
%TO.P,U1,J2-10,IO26*%
%TO.N,unconnected-(U1-IO26-PadJ2-10)*%
X202165000Y-54190000D03*
%TO.P,U1,J2-11,IO27*%
%TO.N,Net-(U1-IO27)*%
X202165000Y-56730000D03*
%TO.P,U1,J2-12,IO14*%
%TO.N,unconnected-(U1-IO14-PadJ2-12)*%
X202165000Y-59270000D03*
%TO.P,U1,J2-13,IO12*%
%TO.N,unconnected-(U1-IO12-PadJ2-13)*%
X202165000Y-61810000D03*
%TO.P,U1,J2-14,GND1*%
%TO.N,GND*%
X202165000Y-64350000D03*
%TO.P,U1,J2-15,IO13*%
%TO.N,Net-(U1-IO13)*%
X202165000Y-66890000D03*
%TO.P,U1,J2-16,SD2*%
%TO.N,unconnected-(U1-SD2-PadJ2-16)*%
X202165000Y-69430000D03*
%TO.P,U1,J2-17,SD3*%
%TO.N,unconnected-(U1-SD3-PadJ2-17)*%
X202165000Y-71970000D03*
%TO.P,U1,J2-18,CMD*%
%TO.N,unconnected-(U1-CMD-PadJ2-18)*%
X202165000Y-74510000D03*
%TO.P,U1,J2-19,EXT_5V*%
%TO.N,+5V*%
X202165000Y-77050000D03*
%TO.P,U1,J3-1,GND3*%
%TO.N,unconnected-(U1-GND3-PadJ3-1)*%
X227565000Y-31330000D03*
%TO.P,U1,J3-2,IO23*%
%TO.N,unconnected-(U1-IO23-PadJ3-2)*%
X227565000Y-33870000D03*
%TO.P,U1,J3-3,IO22*%
%TO.N,Net-(J7-Pin_2)*%
X227565000Y-36410000D03*
%TO.P,U1,J3-4,TXD0*%
%TO.N,unconnected-(U1-TXD0-PadJ3-4)*%
X227565000Y-38950000D03*
%TO.P,U1,J3-5,RXD0*%
%TO.N,unconnected-(U1-RXD0-PadJ3-5)*%
X227565000Y-41490000D03*
%TO.P,U1,J3-6,IO21*%
%TO.N,Net-(J7-Pin_1)*%
X227565000Y-44030000D03*
%TO.P,U1,J3-7,GND2*%
%TO.N,unconnected-(U1-GND2-PadJ3-7)*%
X227565000Y-46570000D03*
%TO.P,U1,J3-8,IO19*%
%TO.N,Net-(J2-Pin_2)*%
X227565000Y-49110000D03*
%TO.P,U1,J3-9,IO18*%
%TO.N,unconnected-(U1-IO18-PadJ3-9)*%
X227565000Y-51650000D03*
%TO.P,U1,J3-10,IO5*%
%TO.N,unconnected-(U1-IO5-PadJ3-10)*%
X227565000Y-54190000D03*
%TO.P,U1,J3-11,IO17*%
%TO.N,Net-(J4-Pin_1)*%
X227565000Y-56730000D03*
%TO.P,U1,J3-12,IO16*%
%TO.N,Net-(U1-IO16)*%
X227565000Y-59270000D03*
%TO.P,U1,J3-13,IO4*%
%TO.N,unconnected-(U1-IO4-PadJ3-13)*%
X227565000Y-61810000D03*
%TO.P,U1,J3-14,IO0*%
%TO.N,unconnected-(U1-IO0-PadJ3-14)*%
X227565000Y-64350000D03*
%TO.P,U1,J3-15,IO2*%
%TO.N,Net-(J3-Pin_1)*%
X227565000Y-66890000D03*
%TO.P,U1,J3-16,IO15*%
%TO.N,unconnected-(U1-IO15-PadJ3-16)*%
X227565000Y-69430000D03*
%TO.P,U1,J3-17,SD1*%
%TO.N,unconnected-(U1-SD1-PadJ3-17)*%
X227565000Y-71970000D03*
%TO.P,U1,J3-18,SD0*%
%TO.N,unconnected-(U1-SD0-PadJ3-18)*%
X227565000Y-74510000D03*
%TO.P,U1,J3-19,CLK*%
%TO.N,unconnected-(U1-CLK-PadJ3-19)*%
X227565000Y-77050000D03*
%TD*%
D26*
%TO.N,+5V*%
X227330000Y-86630000D02*
X228081900Y-86630000D01*
X209843100Y-92913100D02*
X207897200Y-90967200D01*
X207897200Y-85359700D02*
X209780000Y-83476900D01*
X202165000Y-77050000D02*
X204280000Y-77050000D01*
X210840000Y-92913100D02*
X209843100Y-92913100D01*
X207897200Y-90967200D02*
X207897200Y-85359700D01*
X209780000Y-82550000D02*
X209780000Y-83476900D01*
X210840000Y-94140000D02*
X210840000Y-92913100D01*
X227330000Y-97610900D02*
X225097400Y-99843500D01*
X227330000Y-93710000D02*
X228081900Y-93710000D01*
X204280000Y-77050000D02*
X209780000Y-82550000D01*
X228081900Y-93710000D02*
X228081900Y-86630000D01*
X210840000Y-97059500D02*
X210840000Y-94140000D01*
X213624000Y-99843500D02*
X210840000Y-97059500D01*
X225097400Y-99843500D02*
X213624000Y-99843500D01*
X227330000Y-93710000D02*
X227330000Y-97610900D01*
%TO.N,+3.3V*%
X203270400Y-31330000D02*
X203271900Y-31330000D01*
X217630000Y-21590000D02*
X217630000Y-20838100D01*
X215900000Y-111760000D02*
X220980000Y-111760000D01*
X202165000Y-31330000D02*
X203158500Y-31330000D01*
X213763800Y-20838100D02*
X203271900Y-31330000D01*
X203158500Y-31330000D02*
X203270400Y-31330000D01*
X217630000Y-20838100D02*
X213763800Y-20838100D01*
%TO.N,Net-(U3-+)*%
X204040000Y-96063100D02*
X201700000Y-98403100D01*
X204040000Y-94140000D02*
X204040000Y-96063100D01*
X201700000Y-99330000D02*
X201700000Y-98403100D01*
%TO.N,Net-(J1-Pin_1)*%
X217651900Y-89688100D02*
X216900000Y-90440000D01*
X222250000Y-89688100D02*
X217651900Y-89688100D01*
X222250000Y-90440000D02*
X222250000Y-89688100D01*
%TO.N,Net-(C3-Pad1)*%
X214400000Y-96790000D02*
X214400000Y-91566900D01*
X214400000Y-90440000D02*
X214400000Y-91566900D01*
X214630000Y-96790000D02*
X214400000Y-96790000D01*
X214400000Y-96790000D02*
X212090000Y-96790000D01*
X209140000Y-90440000D02*
X214400000Y-90440000D01*
%TO.N,Net-(U3--)*%
X206004100Y-97810000D02*
X205229300Y-97035200D01*
X207592200Y-99215300D02*
X207592200Y-98643600D01*
X213130000Y-104753100D02*
X207592200Y-99215300D01*
X205229300Y-96112100D02*
X205740000Y-95601400D01*
X205229300Y-97035200D02*
X205229300Y-96112100D01*
X205740000Y-95601400D02*
X205740000Y-90440000D01*
X213130000Y-105680000D02*
X213130000Y-104753100D01*
X206758600Y-97810000D02*
X206004100Y-97810000D01*
X207592200Y-98643600D02*
X206758600Y-97810000D01*
%TO.N,Net-(D2_Red1-A)*%
X215900000Y-116840000D02*
X209550000Y-116840000D01*
X209550000Y-116840000D02*
X205740000Y-120650000D01*
%TO.N,Net-(J3-Pin_1)*%
X229045700Y-98132400D02*
X224790000Y-102388100D01*
X224790000Y-103140000D02*
X224790000Y-102388100D01*
X227565000Y-66890000D02*
X229045700Y-68370700D01*
X229045700Y-68370700D02*
X229045700Y-98132400D01*
%TO.N,Net-(J4-Pin_1)*%
X227565000Y-56730000D02*
X224790000Y-59505000D01*
X224790000Y-59505000D02*
X224790000Y-98060000D01*
%TO.N,Net-(J7-Pin_1)*%
X227565000Y-44030000D02*
X214630000Y-31095000D01*
X214630000Y-31095000D02*
X214630000Y-21590000D01*
%TO.N,Net-(J7-Pin_2)*%
X227565000Y-36410000D02*
X215630000Y-24475000D01*
X215630000Y-24475000D02*
X215630000Y-21590000D01*
%TO.N,Net-(Q2-B)*%
X219710000Y-106680000D02*
X219710000Y-101600000D01*
%TO.N,Net-(U1-IO16)*%
X226390800Y-77441100D02*
X226390800Y-60444200D01*
X219274200Y-100573100D02*
X225006900Y-100573100D01*
X206941800Y-106611800D02*
X215098400Y-106611800D01*
X217265900Y-102581400D02*
X219274200Y-100573100D01*
X226390800Y-60444200D02*
X227565000Y-59270000D01*
X225006900Y-100573100D02*
X228566800Y-97013200D01*
X215098400Y-106611800D02*
X217265900Y-104444300D01*
X204470000Y-104140000D02*
X206941800Y-106611800D01*
X217265900Y-104444300D02*
X217265900Y-102581400D01*
X228566800Y-97013200D02*
X228566800Y-79617100D01*
X228566800Y-79617100D02*
X226390800Y-77441100D01*
%TO.N,Net-(U1-IO13)*%
X215655400Y-80380400D02*
X215655400Y-92465400D01*
X202165000Y-66890000D02*
X215655400Y-80380400D01*
X215655400Y-92465400D02*
X219710000Y-96520000D01*
%TO.N,Net-(U1-IO27)*%
X222469900Y-112810100D02*
X223520000Y-111760000D01*
X202165000Y-56730000D02*
X200772700Y-58122300D01*
X200772700Y-58122300D02*
X200772700Y-101894900D01*
X209527800Y-107997700D02*
X214340200Y-112810100D01*
X200772700Y-101894900D02*
X206875500Y-107997700D01*
X214340200Y-112810100D02*
X222469900Y-112810100D01*
X206875500Y-107997700D02*
X209527800Y-107997700D01*
%TO.N,Net-(C2-Pad2)*%
X214630000Y-105680000D02*
X214630000Y-101870000D01*
%TO.N,Net-(C6-Pad2)*%
X212090000Y-101830000D02*
X212090000Y-101870000D01*
X209550000Y-99290000D02*
X212090000Y-101830000D01*
%TD*%
M02*
